<?xml version="1.0" encoding="utf-8" standalone="no"?>
<!DOCTYPE svg PUBLIC "-//W3C//DTD SVG 1.1//EN"
  "http://www.w3.org/Graphics/SVG/1.1/DTD/svg11.dtd">
<svg xmlns:xlink="http://www.w3.org/1999/xlink" width="1440pt" height="720pt" viewBox="0 0 1440 720" xmlns="http://www.w3.org/2000/svg" version="1.1">
 <metadata>
  <rdf:RDF xmlns:dc="http://purl.org/dc/elements/1.1/" xmlns:cc="http://creativecommons.org/ns#" xmlns:rdf="http://www.w3.org/1999/02/22-rdf-syntax-ns#">
   <cc:Work>
    <dc:type rdf:resource="http://purl.org/dc/dcmitype/StillImage"/>
    <dc:date>2023-11-11T08:39:55.480855</dc:date>
    <dc:format>image/svg+xml</dc:format>
    <dc:creator>
     <cc:Agent>
      <dc:title>Matplotlib v3.5.1, https://matplotlib.org/</dc:title>
     </cc:Agent>
    </dc:creator>
   </cc:Work>
  </rdf:RDF>
 </metadata>
 <defs>
  <style type="text/css">*{stroke-linejoin: round; stroke-linecap: butt}</style>
 </defs>
 <g id="figure_1">
  <g id="patch_1">
   <path d="M 0 720 
L 1440 720 
L 1440 0 
L 0 0 
z
" style="fill: #ffffff"/>
  </g>
  <g id="axes_1">
   <g id="patch_2">
    <path d="M 180 640.8 
L 645 640.8 
L 645 86.4 
L 180 86.4 
z
" style="fill: #ffffff"/>
   </g>
   <g id="PolyCollection_1">
    <defs>
     <path id="mfadd5a65d2" d="M 201.136364 -289.757038 
L 201.136364 -285.716599 
L 261.525974 -285.273691 
L 321.915584 -336.748977 
L 382.305195 -380.993319 
L 503.084416 -400.241979 
L 623.863636 -503.37529 
L 623.863636 -532.577552 
L 623.863636 -532.577552 
L 503.084416 -476.896254 
L 382.305195 -387.4204 
L 321.915584 -354.354382 
L 261.525974 -297.097574 
L 201.136364 -289.757038 
z
" style="stroke: #377eb8; stroke-opacity: 0.2"/>
    </defs>
    <g clip-path="url(#p8e0b530886)">
     <use xlink:href="#mfadd5a65d2" x="0" y="720" style="fill: #377eb8; fill-opacity: 0.2; stroke: #377eb8; stroke-opacity: 0.2"/>
    </g>
   </g>
   <g id="PolyCollection_2">
    <defs>
     <path id="mfdda8339de" d="M 201.136364 -185.918256 
L 201.136364 -184.240289 
L 261.525974 -181.706829 
L 321.915584 -223.80531 
L 382.305195 -260.969481 
L 503.084416 -314.925377 
L 623.863636 -352.195137 
L 623.863636 -368.969833 
L 623.863636 -368.969833 
L 503.084416 -328.953456 
L 382.305195 -274.06771 
L 321.915584 -234.628489 
L 261.525974 -187.812078 
L 201.136364 -185.918256 
z
" style="stroke: #ff7f00; stroke-opacity: 0.2"/>
    </defs>
    <g clip-path="url(#p8e0b530886)">
     <use xlink:href="#mfdda8339de" x="0" y="720" style="fill: #ff7f00; fill-opacity: 0.2; stroke: #ff7f00; stroke-opacity: 0.2"/>
    </g>
   </g>
   <g id="PolyCollection_3">
    <defs>
     <path id="mca6e1ff93c" d="M 201.136364 -126.864165 
L 201.136364 -122.550901 
L 261.525974 -109.365207 
L 321.915584 -137.90571 
L 382.305195 -164.743233 
L 503.084416 -224.029073 
L 623.863636 -250.537746 
L 623.863636 -261.46426 
L 623.863636 -261.46426 
L 503.084416 -231.005495 
L 382.305195 -170.148481 
L 321.915584 -139.869237 
L 261.525974 -114.741981 
L 201.136364 -126.864165 
z
" style="stroke: #4daf4a; stroke-opacity: 0.2"/>
    </defs>
    <g clip-path="url(#p8e0b530886)">
     <use xlink:href="#mca6e1ff93c" x="0" y="720" style="fill: #4daf4a; fill-opacity: 0.2; stroke: #4daf4a; stroke-opacity: 0.2"/>
    </g>
   </g>
   <g id="PolyCollection_4">
    <defs>
     <path id="mc2fd9adaf5" d="M 201.136364 -97.820329 
L 201.136364 -96.528115 
L 261.525974 -77.314864 
L 321.915584 -86.428744 
L 382.305195 -97.908213 
L 503.084416 -131.217556 
L 623.863636 -165.208727 
L 623.863636 -167.16531 
L 623.863636 -167.16531 
L 503.084416 -132.765368 
L 382.305195 -101.31149 
L 321.915584 -88.251977 
L 261.525974 -81.059859 
L 201.136364 -97.820329 
z
" style="stroke: #f781bf; stroke-opacity: 0.2"/>
    </defs>
    <g clip-path="url(#p8e0b530886)">
     <use xlink:href="#mc2fd9adaf5" x="0" y="720" style="fill: #f781bf; fill-opacity: 0.2; stroke: #f781bf; stroke-opacity: 0.2"/>
    </g>
   </g>
   <g id="matplotlib.axis_1">
    <g id="xtick_1">
     <g id="line2d_1">
      <defs>
       <path id="m7faba5f375" d="M 0 0 
L 0 3.5 
" style="stroke: #000000; stroke-width: 0.8"/>
      </defs>
      <g>
       <use xlink:href="#m7faba5f375" x="201.136364" y="640.8" style="stroke: #000000; stroke-width: 0.8"/>
      </g>
     </g>
     <g id="text_1">
      <!-- 6 -->
      <g transform="translate(193.636364 668.289062)scale(0.3 -0.3)">
       <defs>
        <path id="STIXGeneral-Regular-36" d="M 2854 4378 
L 2867 4275 
Q 2112 4154 1606 3664 
Q 1101 3174 973 2451 
Q 1344 2739 1786 2739 
Q 2349 2739 2672 2380 
Q 2995 2022 2995 1402 
Q 2995 774 2669 378 
Q 2291 -90 1651 -90 
Q 870 -90 518 557 
Q 218 1107 218 1786 
Q 218 2835 915 3552 
Q 1312 3962 1731 4131 
Q 2150 4301 2854 4378 
z
M 2419 1203 
Q 2419 2445 1555 2445 
Q 1235 2445 1024 2275 
Q 813 2106 813 1702 
Q 813 954 1046 522 
Q 1280 90 1722 90 
Q 2061 90 2240 394 
Q 2419 698 2419 1203 
z
" transform="scale(0.015625)"/>
       </defs>
       <use xlink:href="#STIXGeneral-Regular-36"/>
      </g>
     </g>
    </g>
    <g id="xtick_2">
     <g id="line2d_2">
      <g>
       <use xlink:href="#m7faba5f375" x="261.525974" y="640.8" style="stroke: #000000; stroke-width: 0.8"/>
      </g>
     </g>
     <g id="text_2">
      <!-- 12 -->
      <g transform="translate(246.525974 668.289062)scale(0.3 -0.3)">
       <defs>
        <path id="STIXGeneral-Regular-31" d="M 2522 0 
L 755 0 
L 755 96 
Q 1107 115 1235 227 
Q 1363 339 1363 608 
L 1363 3482 
Q 1363 3795 1171 3795 
Q 1082 3795 883 3718 
L 710 3654 
L 710 3744 
L 1856 4326 
L 1914 4307 
L 1914 486 
Q 1914 275 2042 185 
Q 2170 96 2522 96 
L 2522 0 
z
" transform="scale(0.015625)"/>
        <path id="STIXGeneral-Regular-32" d="M 3034 877 
L 2688 0 
L 186 0 
L 186 77 
L 1325 1286 
Q 1773 1754 1965 2144 
Q 2157 2534 2157 2950 
Q 2157 3379 1920 3616 
Q 1683 3853 1267 3853 
Q 922 3853 720 3673 
Q 518 3494 326 3021 
L 192 3053 
Q 301 3648 630 3987 
Q 960 4326 1523 4326 
Q 2054 4326 2380 4006 
Q 2707 3686 2707 3200 
Q 2707 2477 1888 1613 
L 832 486 
L 2330 486 
Q 2541 486 2665 569 
Q 2790 653 2944 915 
L 3034 877 
z
" transform="scale(0.015625)"/>
       </defs>
       <use xlink:href="#STIXGeneral-Regular-31"/>
       <use xlink:href="#STIXGeneral-Regular-32" x="49.999985"/>
      </g>
     </g>
    </g>
    <g id="xtick_3">
     <g id="line2d_3">
      <g>
       <use xlink:href="#m7faba5f375" x="321.915584" y="640.8" style="stroke: #000000; stroke-width: 0.8"/>
      </g>
     </g>
     <g id="text_3">
      <!-- 18 -->
      <g transform="translate(306.915584 668.289062)scale(0.3 -0.3)">
       <defs>
        <path id="STIXGeneral-Regular-38" d="M 2848 992 
Q 2848 499 2505 204 
Q 2163 -90 1587 -90 
Q 1050 -90 704 204 
Q 358 499 358 954 
Q 358 1293 524 1533 
Q 691 1773 1190 2125 
Q 710 2522 553 2765 
Q 397 3008 397 3328 
Q 397 3782 745 4054 
Q 1094 4326 1638 4326 
Q 2106 4326 2410 4060 
Q 2714 3795 2714 3411 
Q 2714 3059 2531 2848 
Q 2349 2637 1856 2374 
Q 2432 1990 2640 1689 
Q 2848 1389 2848 992 
z
M 2272 3411 
Q 2272 3744 2086 3945 
Q 1901 4147 1574 4147 
Q 1248 4147 1059 3977 
Q 870 3808 870 3513 
Q 870 3219 1059 2979 
Q 1248 2739 1670 2490 
Q 1997 2682 2134 2896 
Q 2272 3110 2272 3411 
z
M 1734 1741 
L 1357 1997 
Q 1075 1766 960 1545 
Q 845 1325 845 1011 
Q 845 576 1065 333 
Q 1286 90 1658 90 
Q 1971 90 2166 285 
Q 2362 480 2362 794 
Q 2362 1082 2214 1299 
Q 2067 1517 1734 1741 
z
" transform="scale(0.015625)"/>
       </defs>
       <use xlink:href="#STIXGeneral-Regular-31"/>
       <use xlink:href="#STIXGeneral-Regular-38" x="49.999985"/>
      </g>
     </g>
    </g>
    <g id="xtick_4">
     <g id="line2d_4">
      <g>
       <use xlink:href="#m7faba5f375" x="382.305195" y="640.8" style="stroke: #000000; stroke-width: 0.8"/>
      </g>
     </g>
     <g id="text_4">
      <!-- 24 -->
      <g transform="translate(367.305195 668.289062)scale(0.3 -0.3)">
       <defs>
        <path id="STIXGeneral-Regular-34" d="M 3027 1069 
L 2368 1069 
L 2368 0 
L 1869 0 
L 1869 1069 
L 77 1069 
L 77 1478 
L 2086 4326 
L 2368 4326 
L 2368 1478 
L 3027 1478 
L 3027 1069 
z
M 1869 1478 
L 1869 3674 
L 333 1478 
L 1869 1478 
z
" transform="scale(0.015625)"/>
       </defs>
       <use xlink:href="#STIXGeneral-Regular-32"/>
       <use xlink:href="#STIXGeneral-Regular-34" x="49.999985"/>
      </g>
     </g>
    </g>
    <g id="xtick_5">
     <g id="line2d_5">
      <g>
       <use xlink:href="#m7faba5f375" x="503.084416" y="640.8" style="stroke: #000000; stroke-width: 0.8"/>
      </g>
     </g>
     <g id="text_5">
      <!-- 36 -->
      <g transform="translate(488.084416 668.289062)scale(0.3 -0.3)">
       <defs>
        <path id="STIXGeneral-Regular-33" d="M 390 3264 
L 288 3290 
Q 435 3770 748 4048 
Q 1062 4326 1542 4326 
Q 1990 4326 2265 4083 
Q 2541 3840 2541 3450 
Q 2541 2925 1946 2566 
Q 2298 2413 2477 2227 
Q 2758 1914 2758 1402 
Q 2758 890 2464 506 
Q 2246 211 1840 60 
Q 1434 -90 979 -90 
Q 262 -90 262 275 
Q 262 378 339 442 
Q 416 506 525 506 
Q 685 506 915 339 
Q 1197 141 1466 141 
Q 1818 141 2058 425 
Q 2298 710 2298 1120 
Q 2298 1856 1632 2048 
Q 1434 2112 979 2112 
L 979 2202 
Q 1338 2323 1517 2432 
Q 2035 2726 2035 3290 
Q 2035 3610 1852 3776 
Q 1670 3942 1344 3942 
Q 768 3942 390 3264 
z
" transform="scale(0.015625)"/>
       </defs>
       <use xlink:href="#STIXGeneral-Regular-33"/>
       <use xlink:href="#STIXGeneral-Regular-36" x="49.999985"/>
      </g>
     </g>
    </g>
    <g id="xtick_6">
     <g id="line2d_6">
      <g>
       <use xlink:href="#m7faba5f375" x="623.863636" y="640.8" style="stroke: #000000; stroke-width: 0.8"/>
      </g>
     </g>
     <g id="text_6">
      <!-- 48 -->
      <g transform="translate(608.863636 668.289062)scale(0.3 -0.3)">
       <use xlink:href="#STIXGeneral-Regular-34"/>
       <use xlink:href="#STIXGeneral-Regular-38" x="49.999985"/>
      </g>
     </g>
    </g>
    <g id="text_7">
     <!-- Modes -->
     <g transform="translate(371.667188 699.289062)scale(0.3 -0.3)">
      <defs>
       <path id="STIXGeneral-Regular-4d" d="M 5530 0 
L 3738 0 
L 3738 122 
Q 4115 147 4214 265 
Q 4314 384 4314 787 
L 4314 3661 
L 2682 0 
L 2592 0 
L 979 3514 
L 979 966 
Q 979 448 1088 294 
Q 1197 141 1574 122 
L 1574 0 
L 77 0 
L 77 122 
Q 358 141 480 205 
Q 602 269 650 432 
Q 698 595 698 966 
L 698 3514 
Q 698 3878 589 3984 
Q 480 4090 90 4115 
L 90 4237 
L 1357 4237 
L 2835 1024 
L 4250 4237 
L 5523 4237 
L 5523 4115 
Q 5178 4109 5072 3993 
Q 4966 3878 4966 3520 
L 4966 717 
Q 4966 378 5072 262 
Q 5178 147 5530 122 
L 5530 0 
z
" transform="scale(0.015625)"/>
       <path id="STIXGeneral-Regular-6f" d="M 3008 1478 
Q 3008 806 2608 371 
Q 2208 -64 1568 -64 
Q 979 -64 582 368 
Q 186 800 186 1459 
Q 186 2125 582 2534 
Q 979 2944 1626 2944 
Q 2221 2944 2614 2537 
Q 3008 2131 3008 1478 
z
M 2432 1306 
Q 2432 2035 2112 2445 
Q 1856 2765 1504 2765 
Q 1171 2765 966 2493 
Q 762 2221 762 1747 
Q 762 928 1101 435 
Q 1318 115 1677 115 
Q 2029 115 2230 432 
Q 2432 749 2432 1306 
z
" transform="scale(0.015625)"/>
       <path id="STIXGeneral-Regular-64" d="M 3142 269 
L 2202 -64 
L 2176 -45 
L 2176 365 
Q 1869 -64 1357 -64 
Q 826 -64 499 317 
Q 173 698 173 1312 
Q 173 1990 563 2467 
Q 954 2944 1504 2944 
Q 1850 2944 2176 2669 
L 2176 3667 
Q 2176 3866 2118 3930 
Q 2061 3994 1882 3994 
Q 1792 3994 1741 3987 
L 1741 4090 
Q 2323 4243 2682 4371 
L 2714 4358 
L 2714 730 
Q 2714 506 2768 435 
Q 2822 365 2995 365 
Q 3034 365 3142 371 
L 3142 269 
z
M 2176 653 
L 2176 2125 
Q 2176 2381 1981 2573 
Q 1786 2765 1523 2765 
Q 1158 2765 940 2438 
Q 723 2112 723 1568 
Q 723 979 963 624 
Q 1203 269 1606 269 
Q 1907 269 2080 474 
Q 2176 582 2176 653 
z
" transform="scale(0.015625)"/>
       <path id="STIXGeneral-Regular-65" d="M 2611 1050 
L 2714 1005 
Q 2330 -64 1376 -64 
Q 813 -64 486 329 
Q 160 723 160 1389 
Q 160 2074 525 2509 
Q 890 2944 1485 2944 
Q 2061 2944 2374 2502 
Q 2560 2246 2592 1773 
L 621 1773 
Q 646 1370 700 1158 
Q 755 947 915 730 
Q 1184 378 1626 378 
Q 1939 378 2153 531 
Q 2368 685 2611 1050 
z
M 634 1978 
L 1939 1978 
Q 1882 2381 1750 2547 
Q 1619 2714 1312 2714 
Q 1043 2714 864 2525 
Q 685 2336 634 1978 
z
" transform="scale(0.015625)"/>
       <path id="STIXGeneral-Regular-73" d="M 998 1926 
L 1664 1523 
Q 1984 1331 2105 1164 
Q 2227 998 2227 736 
Q 2227 416 1961 176 
Q 1696 -64 1331 -64 
Q 1030 -64 864 -6 
Q 691 51 570 51 
Q 461 51 416 -26 
L 333 -26 
L 333 979 
L 435 979 
Q 538 512 730 294 
Q 922 77 1248 77 
Q 1485 77 1632 211 
Q 1779 346 1779 550 
Q 1779 845 1440 1030 
L 1094 1222 
Q 326 1651 326 2150 
Q 326 2522 566 2730 
Q 806 2938 1210 2938 
Q 1491 2938 1638 2867 
Q 1754 2816 1818 2816 
Q 1862 2816 1920 2880 
L 1990 2880 
L 2022 2010 
L 1926 2010 
Q 1818 2445 1654 2621 
Q 1491 2797 1203 2797 
Q 986 2797 854 2688 
Q 723 2579 723 2362 
Q 723 2253 796 2128 
Q 870 2003 998 1926 
z
" transform="scale(0.015625)"/>
      </defs>
      <use xlink:href="#STIXGeneral-Regular-4d"/>
      <use xlink:href="#STIXGeneral-Regular-6f" x="88.899994"/>
      <use xlink:href="#STIXGeneral-Regular-64" x="138.899979"/>
      <use xlink:href="#STIXGeneral-Regular-65" x="188.899963"/>
      <use xlink:href="#STIXGeneral-Regular-73" x="233.299957"/>
     </g>
    </g>
   </g>
   <g id="matplotlib.axis_2">
    <g id="ytick_1">
     <g id="line2d_7">
      <defs>
       <path id="m3efa5b1d35" d="M 0 0 
L -3.5 0 
" style="stroke: #000000; stroke-width: 0.8"/>
      </defs>
      <g>
       <use xlink:href="#m3efa5b1d35" x="180" y="478.709275" style="stroke: #000000; stroke-width: 0.8"/>
      </g>
     </g>
     <g id="text_8">
      <!-- $\mathdefault{10^{-2}}$ -->
      <g transform="translate(116 488.953807)scale(0.3 -0.3)">
       <defs>
        <path id="STIXGeneral-Regular-30" d="M 3046 2112 
Q 3046 1683 2963 1302 
Q 2880 922 2717 602 
Q 2554 282 2266 96 
Q 1978 -90 1600 -90 
Q 1210 -90 915 108 
Q 621 307 461 640 
Q 301 973 227 1350 
Q 154 1728 154 2150 
Q 154 2746 301 3222 
Q 448 3699 790 4012 
Q 1133 4326 1626 4326 
Q 2253 4326 2649 3712 
Q 3046 3098 3046 2112 
z
M 2432 2080 
Q 2432 3091 2217 3625 
Q 2003 4160 1587 4160 
Q 1190 4160 979 3622 
Q 768 3085 768 2106 
Q 768 1120 979 598 
Q 1190 77 1600 77 
Q 2003 77 2217 598 
Q 2432 1120 2432 2080 
z
" transform="scale(0.015625)"/>
        <path id="STIXGeneral-Regular-2212" d="M 3974 1408 
L 410 1408 
L 410 1830 
L 3974 1830 
L 3974 1408 
z
" transform="scale(0.015625)"/>
       </defs>
       <use xlink:href="#STIXGeneral-Regular-31" transform="translate(0 0.684375)"/>
       <use xlink:href="#STIXGeneral-Regular-30" transform="translate(49.999985 0.684375)"/>
       <use xlink:href="#STIXGeneral-Regular-2212" transform="translate(101.574969 36.684375)scale(0.7)"/>
       <use xlink:href="#STIXGeneral-Regular-32" transform="translate(149.524959 36.684375)scale(0.7)"/>
      </g>
     </g>
    </g>
    <g id="ytick_2">
     <g id="line2d_8">
      <g>
       <use xlink:href="#m3efa5b1d35" x="180" y="159.326724" style="stroke: #000000; stroke-width: 0.8"/>
      </g>
     </g>
     <g id="text_9">
      <!-- $\mathdefault{10^{-1}}$ -->
      <g transform="translate(116 169.571256)scale(0.3 -0.3)">
       <use xlink:href="#STIXGeneral-Regular-31" transform="translate(0 0.684375)"/>
       <use xlink:href="#STIXGeneral-Regular-30" transform="translate(49.999985 0.684375)"/>
       <use xlink:href="#STIXGeneral-Regular-2212" transform="translate(101.574969 36.684375)scale(0.7)"/>
       <use xlink:href="#STIXGeneral-Regular-31" transform="translate(149.524959 36.684375)scale(0.7)"/>
      </g>
     </g>
    </g>
    <g id="ytick_3">
     <g id="line2d_9">
      <defs>
       <path id="m3c59f5addf" d="M 0 0 
L -2 0 
" style="stroke: #000000; stroke-width: 0.6"/>
      </defs>
      <g>
       <use xlink:href="#m3c59f5addf" x="180" y="605.804371" style="stroke: #000000; stroke-width: 0.6"/>
      </g>
     </g>
    </g>
    <g id="ytick_4">
     <g id="line2d_10">
      <g>
       <use xlink:href="#m3c59f5addf" x="180" y="574.853003" style="stroke: #000000; stroke-width: 0.6"/>
      </g>
     </g>
    </g>
    <g id="ytick_5">
     <g id="line2d_11">
      <g>
       <use xlink:href="#m3c59f5addf" x="180" y="549.563895" style="stroke: #000000; stroke-width: 0.6"/>
      </g>
     </g>
    </g>
    <g id="ytick_6">
     <g id="line2d_12">
      <g>
       <use xlink:href="#m3c59f5addf" x="180" y="528.182259" style="stroke: #000000; stroke-width: 0.6"/>
      </g>
     </g>
    </g>
    <g id="ytick_7">
     <g id="line2d_13">
      <g>
       <use xlink:href="#m3c59f5addf" x="180" y="509.660643" style="stroke: #000000; stroke-width: 0.6"/>
      </g>
     </g>
    </g>
    <g id="ytick_8">
     <g id="line2d_14">
      <g>
       <use xlink:href="#m3c59f5addf" x="180" y="493.32342" style="stroke: #000000; stroke-width: 0.6"/>
      </g>
     </g>
    </g>
    <g id="ytick_9">
     <g id="line2d_15">
      <g>
       <use xlink:href="#m3c59f5addf" x="180" y="382.565547" style="stroke: #000000; stroke-width: 0.6"/>
      </g>
     </g>
    </g>
    <g id="ytick_10">
     <g id="line2d_16">
      <g>
       <use xlink:href="#m3c59f5addf" x="180" y="326.325072" style="stroke: #000000; stroke-width: 0.6"/>
      </g>
     </g>
    </g>
    <g id="ytick_11">
     <g id="line2d_17">
      <g>
       <use xlink:href="#m3c59f5addf" x="180" y="286.42182" style="stroke: #000000; stroke-width: 0.6"/>
      </g>
     </g>
    </g>
    <g id="ytick_12">
     <g id="line2d_18">
      <g>
       <use xlink:href="#m3c59f5addf" x="180" y="255.470452" style="stroke: #000000; stroke-width: 0.6"/>
      </g>
     </g>
    </g>
    <g id="ytick_13">
     <g id="line2d_19">
      <g>
       <use xlink:href="#m3c59f5addf" x="180" y="230.181344" style="stroke: #000000; stroke-width: 0.6"/>
      </g>
     </g>
    </g>
    <g id="ytick_14">
     <g id="line2d_20">
      <g>
       <use xlink:href="#m3c59f5addf" x="180" y="208.799708" style="stroke: #000000; stroke-width: 0.6"/>
      </g>
     </g>
    </g>
    <g id="ytick_15">
     <g id="line2d_21">
      <g>
       <use xlink:href="#m3c59f5addf" x="180" y="190.278092" style="stroke: #000000; stroke-width: 0.6"/>
      </g>
     </g>
    </g>
    <g id="ytick_16">
     <g id="line2d_22">
      <g>
       <use xlink:href="#m3c59f5addf" x="180" y="173.940868" style="stroke: #000000; stroke-width: 0.6"/>
      </g>
     </g>
    </g>
    <g id="text_10">
     <!-- Mean Relative $H^1$ Error -->
     <g transform="translate(105.489062 510.15)rotate(-90)scale(0.3 -0.3)">
      <defs>
       <path id="STIXGeneral-Regular-61" d="M 2829 422 
L 2829 243 
Q 2586 -64 2253 -64 
Q 1888 -64 1843 403 
L 1837 403 
Q 1427 -64 909 -64 
Q 608 -64 422 112 
Q 237 288 237 602 
Q 237 1050 685 1350 
Q 992 1555 1837 1869 
L 1837 2214 
Q 1837 2502 1699 2646 
Q 1562 2790 1338 2790 
Q 1146 2790 1018 2697 
Q 890 2605 890 2477 
Q 890 2419 909 2348 
Q 928 2278 928 2208 
Q 928 2112 841 2029 
Q 755 1946 634 1946 
Q 525 1946 441 2029 
Q 358 2112 358 2240 
Q 358 2547 685 2752 
Q 986 2944 1421 2944 
Q 1939 2944 2176 2656 
Q 2291 2522 2323 2384 
Q 2355 2246 2355 1946 
L 2355 723 
Q 2355 301 2554 301 
Q 2682 301 2829 422 
z
M 1837 813 
L 1837 1715 
Q 1248 1510 1018 1293 
Q 800 1094 800 800 
Q 800 557 921 432 
Q 1043 307 1242 307 
Q 1453 307 1613 410 
Q 1747 506 1792 589 
Q 1837 672 1837 813 
z
" transform="scale(0.015625)"/>
       <path id="STIXGeneral-Regular-6e" d="M 3104 0 
L 1773 0 
L 1779 96 
Q 2016 115 2096 233 
Q 2176 352 2176 672 
L 2176 1946 
Q 2176 2592 1709 2592 
Q 1549 2592 1408 2515 
Q 1267 2438 1050 2227 
L 1050 461 
Q 1050 269 1136 192 
Q 1222 115 1466 96 
L 1466 0 
L 115 0 
L 115 96 
Q 358 115 435 214 
Q 512 314 512 602 
L 512 2157 
Q 512 2394 467 2483 
Q 422 2573 288 2573 
Q 160 2573 102 2547 
L 102 2656 
Q 550 2784 979 2944 
L 1030 2925 
L 1030 2426 
L 1037 2426 
Q 1491 2944 1958 2944 
Q 2323 2944 2518 2688 
Q 2714 2432 2714 1958 
L 2714 544 
Q 2714 288 2790 205 
Q 2867 122 3104 96 
L 3104 0 
z
" transform="scale(0.015625)"/>
       <path id="STIXGeneral-Regular-20" transform="scale(0.015625)"/>
       <path id="STIXGeneral-Regular-52" d="M 4224 0 
L 3187 0 
L 1664 1971 
L 1306 1958 
L 1306 717 
Q 1306 352 1405 249 
Q 1504 147 1875 122 
L 1875 0 
L 109 0 
L 109 122 
Q 474 154 563 262 
Q 653 371 653 794 
L 653 3526 
Q 653 3885 563 3987 
Q 474 4090 109 4115 
L 109 4237 
L 1850 4237 
Q 2726 4237 3187 3859 
Q 3501 3603 3501 3091 
Q 3501 2221 2342 2042 
L 3622 422 
Q 3757 256 3878 198 
Q 4000 141 4224 122 
L 4224 0 
z
M 1306 3731 
L 1306 2195 
Q 1766 2202 1990 2246 
Q 2214 2291 2438 2413 
Q 2803 2618 2803 3142 
Q 2803 4000 1632 4000 
Q 1459 4000 1382 3945 
Q 1306 3891 1306 3731 
z
" transform="scale(0.015625)"/>
       <path id="STIXGeneral-Regular-6c" d="M 1645 0 
L 134 0 
L 134 96 
Q 435 122 531 221 
Q 627 320 627 589 
L 627 3590 
Q 627 3821 569 3910 
Q 512 4000 358 4000 
Q 224 4000 122 3987 
L 122 4090 
Q 730 4237 1133 4371 
L 1165 4346 
L 1165 557 
Q 1165 288 1254 201 
Q 1344 115 1645 96 
L 1645 0 
z
" transform="scale(0.015625)"/>
       <path id="STIXGeneral-Regular-74" d="M 1702 493 
L 1786 422 
Q 1478 -64 1011 -64 
Q 448 -64 448 749 
L 448 2675 
L 109 2675 
Q 83 2694 83 2720 
Q 83 2771 192 2842 
Q 435 2982 813 3526 
Q 826 3546 874 3606 
Q 922 3667 941 3706 
Q 986 3706 986 3622 
L 986 2880 
L 1632 2880 
L 1632 2675 
L 986 2675 
L 986 845 
Q 986 538 1062 403 
Q 1139 269 1318 269 
Q 1510 269 1702 493 
z
" transform="scale(0.015625)"/>
       <path id="STIXGeneral-Regular-69" d="M 1152 4045 
Q 1152 3904 1056 3811 
Q 960 3718 819 3718 
Q 685 3718 592 3811 
Q 499 3904 499 4045 
Q 499 4179 595 4275 
Q 691 4371 826 4371 
Q 966 4371 1059 4275 
Q 1152 4179 1152 4045 
z
M 1619 0 
L 102 0 
L 102 96 
Q 435 115 521 211 
Q 608 307 608 666 
L 608 2118 
Q 608 2342 563 2432 
Q 518 2522 397 2522 
Q 243 2522 128 2490 
L 128 2592 
L 1120 2944 
L 1146 2918 
L 1146 672 
Q 1146 314 1226 218 
Q 1306 122 1619 96 
L 1619 0 
z
" transform="scale(0.015625)"/>
       <path id="STIXGeneral-Regular-76" d="M 3053 2880 
L 3053 2784 
Q 2906 2771 2835 2688 
Q 2765 2605 2637 2285 
L 1818 230 
Q 1690 -90 1638 -90 
Q 1587 -90 1523 77 
Q 1510 96 1497 141 
Q 1485 186 1472 211 
L 704 2048 
Q 499 2534 403 2652 
Q 307 2771 122 2784 
L 122 2880 
L 1376 2880 
L 1376 2784 
Q 1210 2771 1146 2732 
Q 1082 2694 1082 2611 
Q 1082 2509 1139 2368 
L 1792 730 
L 2426 2387 
Q 2464 2483 2464 2579 
Q 2464 2758 2163 2784 
L 2163 2880 
L 3053 2880 
z
" transform="scale(0.015625)"/>
       <path id="DejaVuSans-48" d="M 628 4666 
L 1259 4666 
L 1259 2753 
L 3553 2753 
L 3553 4666 
L 4184 4666 
L 4184 0 
L 3553 0 
L 3553 2222 
L 1259 2222 
L 1259 0 
L 628 0 
L 628 4666 
z
" transform="scale(0.015625)"/>
       <path id="DejaVuSans-31" d="M 794 531 
L 1825 531 
L 1825 4091 
L 703 3866 
L 703 4441 
L 1819 4666 
L 2450 4666 
L 2450 531 
L 3481 531 
L 3481 0 
L 794 0 
L 794 531 
z
" transform="scale(0.015625)"/>
       <path id="STIXGeneral-Regular-45" d="M 3821 1082 
L 3526 0 
L 77 0 
L 77 122 
Q 442 147 538 252 
Q 634 358 634 730 
L 634 3520 
Q 634 3878 534 3987 
Q 435 4096 77 4115 
L 77 4237 
L 3469 4237 
L 3494 3322 
L 3334 3322 
Q 3264 3750 3085 3872 
Q 2906 3994 2349 3994 
L 1510 3994 
Q 1370 3994 1328 3952 
Q 1286 3910 1286 3763 
L 1286 2355 
L 2253 2355 
Q 2656 2355 2787 2470 
Q 2918 2586 2976 2970 
L 3123 2970 
L 3123 1472 
L 2976 1472 
Q 2918 1875 2790 1984 
Q 2662 2093 2253 2093 
L 1286 2093 
L 1286 538 
Q 1286 346 1420 291 
Q 1555 237 1933 237 
L 2163 237 
Q 2848 237 3136 403 
Q 3424 570 3642 1082 
L 3821 1082 
z
" transform="scale(0.015625)"/>
       <path id="STIXGeneral-Regular-72" d="M 1024 2931 
L 1024 2342 
Q 1267 2688 1430 2816 
Q 1594 2944 1792 2944 
Q 1958 2944 2051 2854 
Q 2144 2765 2144 2605 
Q 2144 2470 2077 2393 
Q 2010 2317 1894 2317 
Q 1773 2317 1638 2445 
Q 1536 2541 1472 2541 
Q 1338 2541 1181 2355 
Q 1024 2170 1024 2016 
L 1024 576 
Q 1024 301 1133 205 
Q 1242 109 1568 96 
L 1568 0 
L 32 0 
L 32 96 
Q 339 154 412 224 
Q 486 294 486 538 
L 486 2138 
Q 486 2349 438 2435 
Q 390 2522 269 2522 
Q 166 2522 45 2496 
L 45 2598 
Q 448 2726 992 2944 
L 1024 2931 
z
" transform="scale(0.015625)"/>
      </defs>
      <use xlink:href="#STIXGeneral-Regular-4d" transform="translate(0 0.684375)"/>
      <use xlink:href="#STIXGeneral-Regular-65" transform="translate(88.899994 0.684375)"/>
      <use xlink:href="#STIXGeneral-Regular-61" transform="translate(133.299988 0.684375)"/>
      <use xlink:href="#STIXGeneral-Regular-6e" transform="translate(177.699982 0.684375)"/>
      <use xlink:href="#STIXGeneral-Regular-20" transform="translate(227.699966 0.684375)"/>
      <use xlink:href="#STIXGeneral-Regular-52" transform="translate(252.699951 0.684375)"/>
      <use xlink:href="#STIXGeneral-Regular-65" transform="translate(319.399948 0.684375)"/>
      <use xlink:href="#STIXGeneral-Regular-6c" transform="translate(363.799942 0.684375)"/>
      <use xlink:href="#STIXGeneral-Regular-61" transform="translate(391.59993 0.684375)"/>
      <use xlink:href="#STIXGeneral-Regular-74" transform="translate(435.999924 0.684375)"/>
      <use xlink:href="#STIXGeneral-Regular-69" transform="translate(463.799911 0.684375)"/>
      <use xlink:href="#STIXGeneral-Regular-76" transform="translate(491.599899 0.684375)"/>
      <use xlink:href="#STIXGeneral-Regular-65" transform="translate(541.599884 0.684375)"/>
      <use xlink:href="#STIXGeneral-Regular-20" transform="translate(585.999878 0.684375)"/>
      <use xlink:href="#DejaVuSans-48" transform="translate(610.999863 0.684375)"/>
      <use xlink:href="#DejaVuSans-31" transform="translate(693.211946 38.965625)scale(0.7)"/>
      <use xlink:href="#STIXGeneral-Regular-20" transform="translate(740.482454 0.684375)"/>
      <use xlink:href="#STIXGeneral-Regular-45" transform="translate(765.482439 0.684375)"/>
      <use xlink:href="#STIXGeneral-Regular-72" transform="translate(826.582429 0.684375)"/>
      <use xlink:href="#STIXGeneral-Regular-72" transform="translate(859.882417 0.684375)"/>
      <use xlink:href="#STIXGeneral-Regular-6f" transform="translate(893.182405 0.684375)"/>
      <use xlink:href="#STIXGeneral-Regular-72" transform="translate(943.18239 0.684375)"/>
     </g>
    </g>
   </g>
   <g id="line2d_23">
    <path d="M 201.136364 432.24847 
L 261.525974 428.688416 
L 321.915584 374.169185 
L 382.305195 335.755918 
L 503.084416 276.201667 
L 623.863636 201.256487 
" clip-path="url(#p8e0b530886)" style="fill: none; stroke: #377eb8; stroke-width: 2.5; stroke-linecap: square"/>
    <defs>
     <path id="m5c5e5f6dcf" d="M 0 4 
C 1.060812 4 2.078319 3.578535 2.828427 2.828427 
C 3.578535 2.078319 4 1.060812 4 0 
C 4 -1.060812 3.578535 -2.078319 2.828427 -2.828427 
C 2.078319 -3.578535 1.060812 -4 0 -4 
C -1.060812 -4 -2.078319 -3.578535 -2.828427 -2.828427 
C -3.578535 -2.078319 -4 -1.060812 -4 0 
C -4 1.060812 -3.578535 2.078319 -2.828427 2.828427 
C -2.078319 3.578535 -1.060812 4 0 4 
z
" style="stroke: #377eb8"/>
    </defs>
    <g clip-path="url(#p8e0b530886)">
     <use xlink:href="#m5c5e5f6dcf" x="201.136364" y="432.24847" style="fill: #377eb8; stroke: #377eb8"/>
     <use xlink:href="#m5c5e5f6dcf" x="261.525974" y="428.688416" style="fill: #377eb8; stroke: #377eb8"/>
     <use xlink:href="#m5c5e5f6dcf" x="321.915584" y="374.169185" style="fill: #377eb8; stroke: #377eb8"/>
     <use xlink:href="#m5c5e5f6dcf" x="382.305195" y="335.755918" style="fill: #377eb8; stroke: #377eb8"/>
     <use xlink:href="#m5c5e5f6dcf" x="503.084416" y="276.201667" style="fill: #377eb8; stroke: #377eb8"/>
     <use xlink:href="#m5c5e5f6dcf" x="623.863636" y="201.256487" style="fill: #377eb8; stroke: #377eb8"/>
    </g>
   </g>
   <g id="LineCollection_1">
    <path d="M 201.136364 434.283401 
L 201.136364 430.242962 
" clip-path="url(#p8e0b530886)" style="fill: none; stroke: #377eb8; stroke-width: 1.5"/>
    <path d="M 261.525974 434.726309 
L 261.525974 422.902426 
" clip-path="url(#p8e0b530886)" style="fill: none; stroke: #377eb8; stroke-width: 1.5"/>
    <path d="M 321.915584 383.251023 
L 321.915584 365.645618 
" clip-path="url(#p8e0b530886)" style="fill: none; stroke: #377eb8; stroke-width: 1.5"/>
    <path d="M 382.305195 339.006681 
L 382.305195 332.5796 
" clip-path="url(#p8e0b530886)" style="fill: none; stroke: #377eb8; stroke-width: 1.5"/>
    <path d="M 503.084416 319.758021 
L 503.084416 243.103746 
" clip-path="url(#p8e0b530886)" style="fill: none; stroke: #377eb8; stroke-width: 1.5"/>
    <path d="M 623.863636 216.62471 
L 623.863636 187.422448 
" clip-path="url(#p8e0b530886)" style="fill: none; stroke: #377eb8; stroke-width: 1.5"/>
   </g>
   <g id="line2d_24">
    <path d="M 201.136364 534.91819 
L 261.525974 535.206958 
L 321.915584 490.677561 
L 382.305195 452.326851 
L 503.084416 397.883318 
L 623.863636 359.164084 
" clip-path="url(#p8e0b530886)" style="fill: none; stroke: #ff7f00; stroke-width: 2.5; stroke-linecap: square"/>
    <defs>
     <path id="m64dd97491d" d="M -4 4 
L 4 4 
L 4 -4 
L -4 -4 
z
" style="stroke: #ff7f00; stroke-linejoin: miter"/>
    </defs>
    <g clip-path="url(#p8e0b530886)">
     <use xlink:href="#m64dd97491d" x="201.136364" y="534.91819" style="fill: #ff7f00; stroke: #ff7f00; stroke-linejoin: miter"/>
     <use xlink:href="#m64dd97491d" x="261.525974" y="535.206958" style="fill: #ff7f00; stroke: #ff7f00; stroke-linejoin: miter"/>
     <use xlink:href="#m64dd97491d" x="321.915584" y="490.677561" style="fill: #ff7f00; stroke: #ff7f00; stroke-linejoin: miter"/>
     <use xlink:href="#m64dd97491d" x="382.305195" y="452.326851" style="fill: #ff7f00; stroke: #ff7f00; stroke-linejoin: miter"/>
     <use xlink:href="#m64dd97491d" x="503.084416" y="397.883318" style="fill: #ff7f00; stroke: #ff7f00; stroke-linejoin: miter"/>
     <use xlink:href="#m64dd97491d" x="623.863636" y="359.164084" style="fill: #ff7f00; stroke: #ff7f00; stroke-linejoin: miter"/>
    </g>
   </g>
   <g id="LineCollection_2">
    <path d="M 201.136364 535.759711 
L 201.136364 534.081744 
" clip-path="url(#p8e0b530886)" style="fill: none; stroke: #ff7f00; stroke-width: 1.5"/>
    <path d="M 261.525974 538.293171 
L 261.525974 532.187922 
" clip-path="url(#p8e0b530886)" style="fill: none; stroke: #ff7f00; stroke-width: 1.5"/>
    <path d="M 321.915584 496.19469 
L 321.915584 485.371511 
" clip-path="url(#p8e0b530886)" style="fill: none; stroke: #ff7f00; stroke-width: 1.5"/>
    <path d="M 382.305195 459.030519 
L 382.305195 445.93229 
" clip-path="url(#p8e0b530886)" style="fill: none; stroke: #ff7f00; stroke-width: 1.5"/>
    <path d="M 503.084416 405.074623 
L 503.084416 391.046544 
" clip-path="url(#p8e0b530886)" style="fill: none; stroke: #ff7f00; stroke-width: 1.5"/>
    <path d="M 623.863636 367.804863 
L 623.863636 351.030167 
" clip-path="url(#p8e0b530886)" style="fill: none; stroke: #ff7f00; stroke-width: 1.5"/>
   </g>
   <g id="line2d_25">
    <path d="M 201.136364 595.275702 
L 261.525974 607.920354 
L 321.915584 581.109052 
L 382.305195 552.527815 
L 503.084416 492.438859 
L 623.863636 463.891433 
" clip-path="url(#p8e0b530886)" style="fill: none; stroke: #4daf4a; stroke-width: 2.5; stroke-linecap: square"/>
    <defs>
     <path id="m6e2416ef18" d="M -0 5.656854 
L 5.656854 0 
L 0 -5.656854 
L -5.656854 -0 
z
" style="stroke: #4daf4a; stroke-linejoin: miter"/>
    </defs>
    <g clip-path="url(#p8e0b530886)">
     <use xlink:href="#m6e2416ef18" x="201.136364" y="595.275702" style="fill: #4daf4a; stroke: #4daf4a; stroke-linejoin: miter"/>
     <use xlink:href="#m6e2416ef18" x="261.525974" y="607.920354" style="fill: #4daf4a; stroke: #4daf4a; stroke-linejoin: miter"/>
     <use xlink:href="#m6e2416ef18" x="321.915584" y="581.109052" style="fill: #4daf4a; stroke: #4daf4a; stroke-linejoin: miter"/>
     <use xlink:href="#m6e2416ef18" x="382.305195" y="552.527815" style="fill: #4daf4a; stroke: #4daf4a; stroke-linejoin: miter"/>
     <use xlink:href="#m6e2416ef18" x="503.084416" y="492.438859" style="fill: #4daf4a; stroke: #4daf4a; stroke-linejoin: miter"/>
     <use xlink:href="#m6e2416ef18" x="623.863636" y="463.891433" style="fill: #4daf4a; stroke: #4daf4a; stroke-linejoin: miter"/>
    </g>
   </g>
   <g id="LineCollection_3">
    <path d="M 201.136364 597.449099 
L 201.136364 593.135835 
" clip-path="url(#p8e0b530886)" style="fill: none; stroke: #4daf4a; stroke-width: 1.5"/>
    <path d="M 261.525974 610.634793 
L 261.525974 605.258019 
" clip-path="url(#p8e0b530886)" style="fill: none; stroke: #4daf4a; stroke-width: 1.5"/>
    <path d="M 321.915584 582.09429 
L 321.915584 580.130763 
" clip-path="url(#p8e0b530886)" style="fill: none; stroke: #4daf4a; stroke-width: 1.5"/>
    <path d="M 382.305195 555.256767 
L 382.305195 549.851519 
" clip-path="url(#p8e0b530886)" style="fill: none; stroke: #4daf4a; stroke-width: 1.5"/>
    <path d="M 503.084416 495.970927 
L 503.084416 488.994505 
" clip-path="url(#p8e0b530886)" style="fill: none; stroke: #4daf4a; stroke-width: 1.5"/>
    <path d="M 623.863636 469.462254 
L 623.863636 458.53574 
" clip-path="url(#p8e0b530886)" style="fill: none; stroke: #4daf4a; stroke-width: 1.5"/>
   </g>
   <g id="line2d_26">
    <path d="M 201.136364 622.824273 
L 261.525974 640.8 
L 321.915584 632.656644 
L 382.305195 620.379711 
L 503.084416 588.006379 
L 623.863636 553.809532 
" clip-path="url(#p8e0b530886)" style="fill: none; stroke: #f781bf; stroke-width: 2.5; stroke-linecap: square"/>
    <defs>
     <path id="m317e53c7ea" d="M -0 4 
L 4 -4 
L -4 -4 
z
" style="stroke: #f781bf; stroke-linejoin: miter"/>
    </defs>
    <g clip-path="url(#p8e0b530886)">
     <use xlink:href="#m317e53c7ea" x="201.136364" y="622.824273" style="fill: #f781bf; stroke: #f781bf; stroke-linejoin: miter"/>
     <use xlink:href="#m317e53c7ea" x="261.525974" y="640.8" style="fill: #f781bf; stroke: #f781bf; stroke-linejoin: miter"/>
     <use xlink:href="#m317e53c7ea" x="321.915584" y="632.656644" style="fill: #f781bf; stroke: #f781bf; stroke-linejoin: miter"/>
     <use xlink:href="#m317e53c7ea" x="382.305195" y="620.379711" style="fill: #f781bf; stroke: #f781bf; stroke-linejoin: miter"/>
     <use xlink:href="#m317e53c7ea" x="503.084416" y="588.006379" style="fill: #f781bf; stroke: #f781bf; stroke-linejoin: miter"/>
     <use xlink:href="#m317e53c7ea" x="623.863636" y="553.809532" style="fill: #f781bf; stroke: #f781bf; stroke-linejoin: miter"/>
    </g>
   </g>
   <g id="LineCollection_4">
    <path d="M 201.136364 623.471885 
L 201.136364 622.179671 
" clip-path="url(#p8e0b530886)" style="fill: none; stroke: #f781bf; stroke-width: 1.5"/>
    <path d="M 261.525974 642.685136 
L 261.525974 638.940141 
" clip-path="url(#p8e0b530886)" style="fill: none; stroke: #f781bf; stroke-width: 1.5"/>
    <path d="M 321.915584 633.571256 
L 321.915584 631.748023 
" clip-path="url(#p8e0b530886)" style="fill: none; stroke: #f781bf; stroke-width: 1.5"/>
    <path d="M 382.305195 622.091787 
L 382.305195 618.68851 
" clip-path="url(#p8e0b530886)" style="fill: none; stroke: #f781bf; stroke-width: 1.5"/>
    <path d="M 503.084416 588.782444 
L 503.084416 587.234632 
" clip-path="url(#p8e0b530886)" style="fill: none; stroke: #f781bf; stroke-width: 1.5"/>
    <path d="M 623.863636 554.791273 
L 623.863636 552.83469 
" clip-path="url(#p8e0b530886)" style="fill: none; stroke: #f781bf; stroke-width: 1.5"/>
   </g>
   <g id="line2d_27">
    <path d="M 201.136364 432.24847 
L 261.525974 428.688416 
L 321.915584 374.169185 
L 382.305195 335.755918 
L 503.084416 276.201667 
L 623.863636 201.256487 
" clip-path="url(#p8e0b530886)" style="fill: none; stroke: #377eb8; stroke-width: 1.5; stroke-linecap: square"/>
   </g>
   <g id="line2d_28">
    <path d="M 201.136364 534.91819 
L 261.525974 535.206958 
L 321.915584 490.677561 
L 382.305195 452.326851 
L 503.084416 397.883318 
L 623.863636 359.164084 
" clip-path="url(#p8e0b530886)" style="fill: none; stroke: #ff7f00; stroke-width: 1.5; stroke-linecap: square"/>
   </g>
   <g id="line2d_29">
    <path d="M 201.136364 595.275702 
L 261.525974 607.920354 
L 321.915584 581.109052 
L 382.305195 552.527815 
L 503.084416 492.438859 
L 623.863636 463.891433 
" clip-path="url(#p8e0b530886)" style="fill: none; stroke: #4daf4a; stroke-width: 1.5; stroke-linecap: square"/>
   </g>
   <g id="line2d_30">
    <path d="M 201.136364 622.824273 
L 261.525974 640.8 
L 321.915584 632.656644 
L 382.305195 620.379711 
L 503.084416 588.006379 
L 623.863636 553.809532 
" clip-path="url(#p8e0b530886)" style="fill: none; stroke: #f781bf; stroke-width: 1.5; stroke-linecap: square"/>
   </g>
   <g id="patch_3">
    <path d="M 180 640.8 
L 180 86.4 
" style="fill: none; stroke: #000000; stroke-width: 0.8; stroke-linejoin: miter; stroke-linecap: square"/>
   </g>
   <g id="patch_4">
    <path d="M 645 640.8 
L 645 86.4 
" style="fill: none; stroke: #000000; stroke-width: 0.8; stroke-linejoin: miter; stroke-linecap: square"/>
   </g>
   <g id="patch_5">
    <path d="M 180 640.8 
L 645 640.8 
" style="fill: none; stroke: #000000; stroke-width: 0.8; stroke-linejoin: miter; stroke-linecap: square"/>
   </g>
   <g id="patch_6">
    <path d="M 180 86.4 
L 645 86.4 
" style="fill: none; stroke: #000000; stroke-width: 0.8; stroke-linejoin: miter; stroke-linecap: square"/>
   </g>
   <g id="text_11">
    <!-- Smooth Microstructure -->
    <g transform="translate(272.925 79.889063)scale(0.3 -0.3)">
     <defs>
      <path id="STIXGeneral-Regular-53" d="M 3002 2963 
L 2842 2963 
Q 2733 3360 2579 3565 
Q 2189 4064 1651 4064 
Q 1357 4064 1181 3894 
Q 1005 3725 1005 3456 
Q 1005 3328 1069 3206 
Q 1133 3085 1206 2998 
Q 1280 2912 1465 2784 
Q 1651 2656 1766 2589 
Q 1882 2522 2150 2362 
Q 2669 2061 2905 1763 
Q 3142 1466 3142 1107 
Q 3142 576 2771 243 
Q 2400 -90 1837 -90 
Q 1421 -90 1082 58 
Q 915 128 781 128 
Q 704 128 653 70 
Q 602 13 602 -83 
L 461 -83 
L 275 1274 
L 416 1274 
Q 845 141 1734 141 
Q 2074 141 2285 342 
Q 2496 544 2496 858 
Q 2496 1158 2310 1363 
Q 2003 1696 1235 2106 
Q 454 2522 454 3206 
Q 454 3718 768 4022 
Q 1082 4326 1568 4326 
Q 1907 4326 2240 4186 
Q 2413 4109 2522 4109 
Q 2688 4109 2726 4326 
L 2861 4326 
L 3002 2963 
z
" transform="scale(0.015625)"/>
      <path id="STIXGeneral-Regular-6d" d="M 4960 0 
L 3565 0 
L 3565 96 
Q 3834 122 3907 208 
Q 3981 294 3981 576 
L 3981 1894 
Q 3981 2278 3869 2444 
Q 3757 2611 3488 2611 
Q 3264 2611 3107 2521 
Q 2950 2432 2803 2221 
L 2803 608 
Q 2803 301 2896 201 
Q 2989 102 3264 96 
L 3264 0 
L 1830 0 
L 1830 96 
Q 2112 115 2189 188 
Q 2266 262 2266 550 
L 2266 1901 
Q 2266 2611 1850 2611 
Q 1670 2611 1468 2531 
Q 1267 2451 1171 2336 
Q 1088 2240 1088 2227 
L 1088 448 
Q 1088 243 1177 176 
Q 1267 109 1523 96 
L 1523 0 
L 102 0 
L 102 96 
Q 371 102 460 195 
Q 550 288 550 563 
L 550 2150 
Q 550 2387 499 2480 
Q 448 2573 326 2573 
Q 230 2573 122 2547 
L 122 2656 
Q 557 2778 1011 2944 
L 1062 2925 
L 1062 2451 
L 1075 2451 
Q 1363 2752 1584 2848 
Q 1805 2944 2054 2944 
Q 2560 2944 2733 2406 
Q 3232 2944 3776 2944 
Q 4518 2944 4518 1792 
L 4518 493 
Q 4518 282 4582 202 
Q 4646 122 4794 109 
L 4960 96 
L 4960 0 
z
" transform="scale(0.015625)"/>
      <path id="STIXGeneral-Regular-68" d="M 3117 0 
L 1760 0 
L 1760 96 
Q 2042 128 2118 224 
Q 2195 320 2195 653 
L 2195 1920 
Q 2195 2598 1722 2598 
Q 1530 2598 1370 2508 
Q 1210 2419 1005 2195 
L 1005 653 
Q 1005 320 1081 224 
Q 1158 128 1440 96 
L 1440 0 
L 58 0 
L 58 96 
Q 333 134 400 224 
Q 467 314 467 653 
L 467 3667 
Q 467 3872 406 3933 
Q 346 3994 141 3994 
Q 83 3994 64 3987 
L 64 4090 
L 237 4141 
Q 730 4288 973 4371 
L 1005 4352 
L 1005 2406 
Q 1229 2694 1446 2819 
Q 1664 2944 1946 2944 
Q 2733 2944 2733 1926 
L 2733 653 
Q 2733 320 2793 233 
Q 2854 147 3117 96 
L 3117 0 
z
" transform="scale(0.015625)"/>
      <path id="STIXGeneral-Regular-63" d="M 2547 998 
L 2637 941 
Q 2362 403 2112 205 
Q 1786 -64 1376 -64 
Q 845 -64 502 336 
Q 160 736 160 1357 
Q 160 2170 698 2618 
Q 1094 2944 1562 2944 
Q 1965 2944 2256 2749 
Q 2547 2554 2547 2285 
Q 2547 2176 2457 2096 
Q 2368 2016 2246 2016 
Q 2022 2016 1939 2310 
L 1901 2451 
Q 1850 2630 1773 2694 
Q 1696 2758 1523 2758 
Q 1133 2758 893 2451 
Q 653 2144 653 1645 
Q 653 1094 928 745 
Q 1203 397 1645 397 
Q 1920 397 2118 528 
Q 2317 659 2547 998 
z
" transform="scale(0.015625)"/>
      <path id="STIXGeneral-Regular-75" d="M 3072 320 
L 3072 230 
Q 2573 96 2195 -58 
L 2163 -38 
L 2163 486 
L 2150 486 
Q 1747 -64 1235 -64 
Q 870 -64 662 160 
Q 454 384 454 755 
L 454 2362 
Q 454 2598 371 2688 
Q 288 2778 58 2790 
L 58 2880 
L 992 2880 
L 992 813 
Q 992 595 1123 451 
Q 1254 307 1446 307 
Q 1760 307 1984 506 
Q 2067 582 2099 649 
Q 2131 717 2131 877 
L 2131 2355 
Q 2131 2605 2041 2678 
Q 1952 2752 1658 2771 
L 1658 2880 
L 2669 2880 
L 2669 685 
Q 2669 461 2742 390 
Q 2816 320 3034 320 
L 3072 320 
z
" transform="scale(0.015625)"/>
     </defs>
     <use xlink:href="#STIXGeneral-Regular-53"/>
     <use xlink:href="#STIXGeneral-Regular-6d" x="55.599991"/>
     <use xlink:href="#STIXGeneral-Regular-6f" x="133.399979"/>
     <use xlink:href="#STIXGeneral-Regular-6f" x="183.399963"/>
     <use xlink:href="#STIXGeneral-Regular-74" x="233.399948"/>
     <use xlink:href="#STIXGeneral-Regular-68" x="261.199936"/>
     <use xlink:href="#STIXGeneral-Regular-20" x="311.199921"/>
     <use xlink:href="#STIXGeneral-Regular-4d" x="336.199905"/>
     <use xlink:href="#STIXGeneral-Regular-69" x="425.099899"/>
     <use xlink:href="#STIXGeneral-Regular-63" x="452.899887"/>
     <use xlink:href="#STIXGeneral-Regular-72" x="497.299881"/>
     <use xlink:href="#STIXGeneral-Regular-6f" x="530.599869"/>
     <use xlink:href="#STIXGeneral-Regular-73" x="580.599854"/>
     <use xlink:href="#STIXGeneral-Regular-74" x="619.499847"/>
     <use xlink:href="#STIXGeneral-Regular-72" x="647.299835"/>
     <use xlink:href="#STIXGeneral-Regular-75" x="680.599823"/>
     <use xlink:href="#STIXGeneral-Regular-63" x="730.599808"/>
     <use xlink:href="#STIXGeneral-Regular-74" x="774.999802"/>
     <use xlink:href="#STIXGeneral-Regular-75" x="802.799789"/>
     <use xlink:href="#STIXGeneral-Regular-72" x="852.799774"/>
     <use xlink:href="#STIXGeneral-Regular-65" x="886.099762"/>
    </g>
   </g>
   <g id="legend_1">
    <g id="patch_7">
     <path d="M 201 280.44375 
L 444.210938 280.44375 
Q 450.210938 280.44375 450.210938 274.44375 
L 450.210938 107.4 
Q 450.210938 101.4 444.210938 101.4 
L 201 101.4 
Q 195 101.4 195 107.4 
L 195 274.44375 
Q 195 280.44375 201 280.44375 
z
" style="fill: #ffffff; opacity: 0.8; stroke: #cccccc; stroke-linejoin: miter"/>
    </g>
    <g id="line2d_31">
     <path d="M 207 123.9 
L 237 123.9 
L 267 123.9 
" style="fill: none; stroke: #377eb8; stroke-width: 2.5; stroke-linecap: square"/>
     <g>
      <use xlink:href="#m5c5e5f6dcf" x="237" y="123.9" style="fill: #377eb8; stroke: #377eb8"/>
     </g>
    </g>
    <g id="text_12">
     <!-- Size = 144 -->
     <g transform="translate(291 134.4)scale(0.3 -0.3)">
      <defs>
       <path id="STIXGeneral-Regular-7a" d="M 2675 870 
L 2579 0 
L 173 0 
L 173 96 
L 1875 2688 
L 1011 2688 
Q 710 2688 604 2582 
Q 499 2477 454 2125 
L 339 2125 
L 365 2880 
L 2579 2880 
L 2579 2784 
L 858 192 
L 1709 192 
Q 2246 192 2387 365 
Q 2477 474 2560 896 
L 2675 870 
z
" transform="scale(0.015625)"/>
       <path id="STIXGeneral-Regular-3d" d="M 4077 2048 
L 307 2048 
L 307 2470 
L 4077 2470 
L 4077 2048 
z
M 4077 768 
L 307 768 
L 307 1190 
L 4077 1190 
L 4077 768 
z
" transform="scale(0.015625)"/>
      </defs>
      <use xlink:href="#STIXGeneral-Regular-53"/>
      <use xlink:href="#STIXGeneral-Regular-69" x="55.599991"/>
      <use xlink:href="#STIXGeneral-Regular-7a" x="83.399979"/>
      <use xlink:href="#STIXGeneral-Regular-65" x="127.799973"/>
      <use xlink:href="#STIXGeneral-Regular-20" x="172.199966"/>
      <use xlink:href="#STIXGeneral-Regular-3d" x="197.199951"/>
      <use xlink:href="#STIXGeneral-Regular-20" x="265.699936"/>
      <use xlink:href="#STIXGeneral-Regular-31" x="290.699921"/>
      <use xlink:href="#STIXGeneral-Regular-34" x="340.699905"/>
      <use xlink:href="#STIXGeneral-Regular-34" x="390.69989"/>
     </g>
    </g>
    <g id="line2d_32">
     <path d="M 207 166.410937 
L 237 166.410937 
L 267 166.410937 
" style="fill: none; stroke: #ff7f00; stroke-width: 2.5; stroke-linecap: square"/>
     <g>
      <use xlink:href="#m64dd97491d" x="237" y="166.410937" style="fill: #ff7f00; stroke: #ff7f00; stroke-linejoin: miter"/>
     </g>
    </g>
    <g id="text_13">
     <!-- Size = 288 -->
     <g transform="translate(291 176.910937)scale(0.3 -0.3)">
      <use xlink:href="#STIXGeneral-Regular-53"/>
      <use xlink:href="#STIXGeneral-Regular-69" x="55.599991"/>
      <use xlink:href="#STIXGeneral-Regular-7a" x="83.399979"/>
      <use xlink:href="#STIXGeneral-Regular-65" x="127.799973"/>
      <use xlink:href="#STIXGeneral-Regular-20" x="172.199966"/>
      <use xlink:href="#STIXGeneral-Regular-3d" x="197.199951"/>
      <use xlink:href="#STIXGeneral-Regular-20" x="265.699936"/>
      <use xlink:href="#STIXGeneral-Regular-32" x="290.699921"/>
      <use xlink:href="#STIXGeneral-Regular-38" x="340.699905"/>
      <use xlink:href="#STIXGeneral-Regular-38" x="390.69989"/>
     </g>
    </g>
    <g id="line2d_33">
     <path d="M 207 208.921875 
L 237 208.921875 
L 267 208.921875 
" style="fill: none; stroke: #4daf4a; stroke-width: 2.5; stroke-linecap: square"/>
     <g>
      <use xlink:href="#m6e2416ef18" x="237" y="208.921875" style="fill: #4daf4a; stroke: #4daf4a; stroke-linejoin: miter"/>
     </g>
    </g>
    <g id="text_14">
     <!-- Size = 576 -->
     <g transform="translate(291 219.421875)scale(0.3 -0.3)">
      <defs>
       <path id="STIXGeneral-Regular-35" d="M 2803 4358 
L 2573 3814 
Q 2534 3731 2400 3731 
L 1158 3731 
L 902 3187 
Q 1606 3053 1920 2896 
Q 2234 2739 2502 2368 
Q 2726 2061 2726 1555 
Q 2726 1094 2576 780 
Q 2426 467 2099 224 
Q 1664 -90 1011 -90 
Q 646 -90 422 19 
Q 198 128 198 307 
Q 198 550 486 550 
Q 717 550 960 352 
Q 1210 147 1414 147 
Q 1747 147 2012 480 
Q 2278 813 2278 1229 
Q 2278 1843 1850 2189 
Q 1293 2637 486 2637 
Q 410 2637 410 2688 
L 416 2720 
L 1114 4237 
L 2438 4237 
Q 2547 4237 2608 4269 
Q 2669 4301 2746 4403 
L 2803 4358 
z
" transform="scale(0.015625)"/>
       <path id="STIXGeneral-Regular-37" d="M 2874 4134 
L 1517 -51 
L 1101 -51 
L 2368 3763 
L 992 3763 
Q 717 3763 582 3667 
Q 448 3571 243 3238 
L 128 3296 
L 512 4237 
L 2874 4237 
L 2874 4134 
z
" transform="scale(0.015625)"/>
      </defs>
      <use xlink:href="#STIXGeneral-Regular-53"/>
      <use xlink:href="#STIXGeneral-Regular-69" x="55.599991"/>
      <use xlink:href="#STIXGeneral-Regular-7a" x="83.399979"/>
      <use xlink:href="#STIXGeneral-Regular-65" x="127.799973"/>
      <use xlink:href="#STIXGeneral-Regular-20" x="172.199966"/>
      <use xlink:href="#STIXGeneral-Regular-3d" x="197.199951"/>
      <use xlink:href="#STIXGeneral-Regular-20" x="265.699936"/>
      <use xlink:href="#STIXGeneral-Regular-35" x="290.699921"/>
      <use xlink:href="#STIXGeneral-Regular-37" x="340.699905"/>
      <use xlink:href="#STIXGeneral-Regular-36" x="390.69989"/>
     </g>
    </g>
    <g id="line2d_34">
     <path d="M 207 251.432812 
L 237 251.432812 
L 267 251.432812 
" style="fill: none; stroke: #f781bf; stroke-width: 2.5; stroke-linecap: square"/>
     <g>
      <use xlink:href="#m317e53c7ea" x="237" y="251.432812" style="fill: #f781bf; stroke: #f781bf; stroke-linejoin: miter"/>
     </g>
    </g>
    <g id="text_15">
     <!-- Size = 1152 -->
     <g transform="translate(291 261.932812)scale(0.3 -0.3)">
      <use xlink:href="#STIXGeneral-Regular-53"/>
      <use xlink:href="#STIXGeneral-Regular-69" x="55.599991"/>
      <use xlink:href="#STIXGeneral-Regular-7a" x="83.399979"/>
      <use xlink:href="#STIXGeneral-Regular-65" x="127.799973"/>
      <use xlink:href="#STIXGeneral-Regular-20" x="172.199966"/>
      <use xlink:href="#STIXGeneral-Regular-3d" x="197.199951"/>
      <use xlink:href="#STIXGeneral-Regular-20" x="265.699936"/>
      <use xlink:href="#STIXGeneral-Regular-31" x="290.699921"/>
      <use xlink:href="#STIXGeneral-Regular-31" x="340.699905"/>
      <use xlink:href="#STIXGeneral-Regular-35" x="390.69989"/>
      <use xlink:href="#STIXGeneral-Regular-32" x="440.699875"/>
     </g>
    </g>
   </g>
  </g>
  <g id="axes_2">
   <g id="patch_8">
    <path d="M 831 640.8 
L 1296 640.8 
L 1296 86.4 
L 831 86.4 
z
" style="fill: #ffffff"/>
   </g>
   <g id="PolyCollection_5">
    <defs>
     <path id="m07452a2b1f" d="M 852.136364 -565.906289 
L 852.136364 -562.603984 
L 912.525974 -532.504944 
L 972.915584 -548.678396 
L 1033.305195 -561.771799 
L 1154.084416 -586.381062 
L 1274.863636 -626.386077 
L 1274.863636 -640.457212 
L 1274.863636 -640.457212 
L 1154.084416 -613.34927 
L 1033.305195 -579.728904 
L 972.915584 -555.368212 
L 912.525974 -540.434686 
L 852.136364 -565.906289 
z
" style="stroke: #377eb8; stroke-opacity: 0.2"/>
    </defs>
    <g clip-path="url(#p9ddc67b262)">
     <use xlink:href="#m07452a2b1f" x="0" y="720" style="fill: #377eb8; fill-opacity: 0.2; stroke: #377eb8; stroke-opacity: 0.2"/>
    </g>
   </g>
   <g id="PolyCollection_6">
    <defs>
     <path id="m82af9d6e7d" d="M 852.136364 -506.453434 
L 852.136364 -505.331071 
L 912.525974 -471.05651 
L 972.915584 -473.49367 
L 1033.305195 -489.206425 
L 1154.084416 -503.557888 
L 1274.863636 -528.38171 
L 1274.863636 -538.862733 
L 1274.863636 -538.862733 
L 1154.084416 -508.169233 
L 1033.305195 -495.548044 
L 972.915584 -478.743881 
L 912.525974 -475.5253 
L 852.136364 -506.453434 
z
" style="stroke: #ff7f00; stroke-opacity: 0.2"/>
    </defs>
    <g clip-path="url(#p9ddc67b262)">
     <use xlink:href="#m82af9d6e7d" x="0" y="720" style="fill: #ff7f00; fill-opacity: 0.2; stroke: #ff7f00; stroke-opacity: 0.2"/>
    </g>
   </g>
   <g id="PolyCollection_7">
    <defs>
     <path id="m91ac68f0a1" d="M 852.136364 -446.286921 
L 852.136364 -443.435744 
L 912.525974 -414.185161 
L 972.915584 -414.959992 
L 1033.305195 -423.676886 
L 1154.084416 -436.32073 
L 1274.863636 -445.445364 
L 1274.863636 -454.636074 
L 1274.863636 -454.636074 
L 1154.084416 -441.108909 
L 1033.305195 -427.265397 
L 972.915584 -417.570899 
L 912.525974 -418.596432 
L 852.136364 -446.286921 
z
" style="stroke: #4daf4a; stroke-opacity: 0.2"/>
    </defs>
    <g clip-path="url(#p9ddc67b262)">
     <use xlink:href="#m91ac68f0a1" x="0" y="720" style="fill: #4daf4a; fill-opacity: 0.2; stroke: #4daf4a; stroke-opacity: 0.2"/>
    </g>
   </g>
   <g id="PolyCollection_8">
    <defs>
     <path id="m72a24f4379" d="M 852.136364 -395.824625 
L 852.136364 -393.083809 
L 912.525974 -359.298082 
L 972.915584 -353.432354 
L 1033.305195 -356.888291 
L 1154.084416 -365.212087 
L 1274.863636 -377.664742 
L 1274.863636 -378.540931 
L 1274.863636 -378.540931 
L 1154.084416 -369.822111 
L 1033.305195 -359.553955 
L 972.915584 -356.61279 
L 912.525974 -363.044526 
L 852.136364 -395.824625 
z
" style="stroke: #f781bf; stroke-opacity: 0.2"/>
    </defs>
    <g clip-path="url(#p9ddc67b262)">
     <use xlink:href="#m72a24f4379" x="0" y="720" style="fill: #f781bf; fill-opacity: 0.2; stroke: #f781bf; stroke-opacity: 0.2"/>
    </g>
   </g>
   <g id="matplotlib.axis_3">
    <g id="xtick_7">
     <g id="line2d_35">
      <g>
       <use xlink:href="#m7faba5f375" x="852.136364" y="640.8" style="stroke: #000000; stroke-width: 0.8"/>
      </g>
     </g>
     <g id="text_16">
      <!-- 6 -->
      <g transform="translate(844.636364 668.289062)scale(0.3 -0.3)">
       <use xlink:href="#STIXGeneral-Regular-36"/>
      </g>
     </g>
    </g>
    <g id="xtick_8">
     <g id="line2d_36">
      <g>
       <use xlink:href="#m7faba5f375" x="912.525974" y="640.8" style="stroke: #000000; stroke-width: 0.8"/>
      </g>
     </g>
     <g id="text_17">
      <!-- 12 -->
      <g transform="translate(897.525974 668.289062)scale(0.3 -0.3)">
       <use xlink:href="#STIXGeneral-Regular-31"/>
       <use xlink:href="#STIXGeneral-Regular-32" x="49.999985"/>
      </g>
     </g>
    </g>
    <g id="xtick_9">
     <g id="line2d_37">
      <g>
       <use xlink:href="#m7faba5f375" x="972.915584" y="640.8" style="stroke: #000000; stroke-width: 0.8"/>
      </g>
     </g>
     <g id="text_18">
      <!-- 18 -->
      <g transform="translate(957.915584 668.289062)scale(0.3 -0.3)">
       <use xlink:href="#STIXGeneral-Regular-31"/>
       <use xlink:href="#STIXGeneral-Regular-38" x="49.999985"/>
      </g>
     </g>
    </g>
    <g id="xtick_10">
     <g id="line2d_38">
      <g>
       <use xlink:href="#m7faba5f375" x="1033.305195" y="640.8" style="stroke: #000000; stroke-width: 0.8"/>
      </g>
     </g>
     <g id="text_19">
      <!-- 24 -->
      <g transform="translate(1018.305195 668.289062)scale(0.3 -0.3)">
       <use xlink:href="#STIXGeneral-Regular-32"/>
       <use xlink:href="#STIXGeneral-Regular-34" x="49.999985"/>
      </g>
     </g>
    </g>
    <g id="xtick_11">
     <g id="line2d_39">
      <g>
       <use xlink:href="#m7faba5f375" x="1154.084416" y="640.8" style="stroke: #000000; stroke-width: 0.8"/>
      </g>
     </g>
     <g id="text_20">
      <!-- 36 -->
      <g transform="translate(1139.084416 668.289062)scale(0.3 -0.3)">
       <use xlink:href="#STIXGeneral-Regular-33"/>
       <use xlink:href="#STIXGeneral-Regular-36" x="49.999985"/>
      </g>
     </g>
    </g>
    <g id="xtick_12">
     <g id="line2d_40">
      <g>
       <use xlink:href="#m7faba5f375" x="1274.863636" y="640.8" style="stroke: #000000; stroke-width: 0.8"/>
      </g>
     </g>
     <g id="text_21">
      <!-- 48 -->
      <g transform="translate(1259.863636 668.289062)scale(0.3 -0.3)">
       <use xlink:href="#STIXGeneral-Regular-34"/>
       <use xlink:href="#STIXGeneral-Regular-38" x="49.999985"/>
      </g>
     </g>
    </g>
    <g id="text_22">
     <!-- Modes -->
     <g transform="translate(1022.667188 699.289062)scale(0.3 -0.3)">
      <use xlink:href="#STIXGeneral-Regular-4d"/>
      <use xlink:href="#STIXGeneral-Regular-6f" x="88.899994"/>
      <use xlink:href="#STIXGeneral-Regular-64" x="138.899979"/>
      <use xlink:href="#STIXGeneral-Regular-65" x="188.899963"/>
      <use xlink:href="#STIXGeneral-Regular-73" x="233.299957"/>
     </g>
    </g>
   </g>
   <g id="matplotlib.axis_4">
    <g id="ytick_17">
     <g id="line2d_41">
      <g>
       <use xlink:href="#m3efa5b1d35" x="831" y="478.709275" style="stroke: #000000; stroke-width: 0.8"/>
      </g>
     </g>
     <g id="text_23">
      <!-- $\mathdefault{10^{-2}}$ -->
      <g transform="translate(767 488.953807)scale(0.3 -0.3)">
       <use xlink:href="#STIXGeneral-Regular-31" transform="translate(0 0.684375)"/>
       <use xlink:href="#STIXGeneral-Regular-30" transform="translate(49.999985 0.684375)"/>
       <use xlink:href="#STIXGeneral-Regular-2212" transform="translate(101.574969 36.684375)scale(0.7)"/>
       <use xlink:href="#STIXGeneral-Regular-32" transform="translate(149.524959 36.684375)scale(0.7)"/>
      </g>
     </g>
    </g>
    <g id="ytick_18">
     <g id="line2d_42">
      <g>
       <use xlink:href="#m3efa5b1d35" x="831" y="159.326724" style="stroke: #000000; stroke-width: 0.8"/>
      </g>
     </g>
     <g id="text_24">
      <!-- $\mathdefault{10^{-1}}$ -->
      <g transform="translate(767 169.571256)scale(0.3 -0.3)">
       <use xlink:href="#STIXGeneral-Regular-31" transform="translate(0 0.684375)"/>
       <use xlink:href="#STIXGeneral-Regular-30" transform="translate(49.999985 0.684375)"/>
       <use xlink:href="#STIXGeneral-Regular-2212" transform="translate(101.574969 36.684375)scale(0.7)"/>
       <use xlink:href="#STIXGeneral-Regular-31" transform="translate(149.524959 36.684375)scale(0.7)"/>
      </g>
     </g>
    </g>
    <g id="ytick_19">
     <g id="line2d_43">
      <g>
       <use xlink:href="#m3c59f5addf" x="831" y="605.804371" style="stroke: #000000; stroke-width: 0.6"/>
      </g>
     </g>
    </g>
    <g id="ytick_20">
     <g id="line2d_44">
      <g>
       <use xlink:href="#m3c59f5addf" x="831" y="574.853003" style="stroke: #000000; stroke-width: 0.6"/>
      </g>
     </g>
    </g>
    <g id="ytick_21">
     <g id="line2d_45">
      <g>
       <use xlink:href="#m3c59f5addf" x="831" y="549.563895" style="stroke: #000000; stroke-width: 0.6"/>
      </g>
     </g>
    </g>
    <g id="ytick_22">
     <g id="line2d_46">
      <g>
       <use xlink:href="#m3c59f5addf" x="831" y="528.182259" style="stroke: #000000; stroke-width: 0.6"/>
      </g>
     </g>
    </g>
    <g id="ytick_23">
     <g id="line2d_47">
      <g>
       <use xlink:href="#m3c59f5addf" x="831" y="509.660643" style="stroke: #000000; stroke-width: 0.6"/>
      </g>
     </g>
    </g>
    <g id="ytick_24">
     <g id="line2d_48">
      <g>
       <use xlink:href="#m3c59f5addf" x="831" y="493.32342" style="stroke: #000000; stroke-width: 0.6"/>
      </g>
     </g>
    </g>
    <g id="ytick_25">
     <g id="line2d_49">
      <g>
       <use xlink:href="#m3c59f5addf" x="831" y="382.565547" style="stroke: #000000; stroke-width: 0.6"/>
      </g>
     </g>
    </g>
    <g id="ytick_26">
     <g id="line2d_50">
      <g>
       <use xlink:href="#m3c59f5addf" x="831" y="326.325072" style="stroke: #000000; stroke-width: 0.6"/>
      </g>
     </g>
    </g>
    <g id="ytick_27">
     <g id="line2d_51">
      <g>
       <use xlink:href="#m3c59f5addf" x="831" y="286.42182" style="stroke: #000000; stroke-width: 0.6"/>
      </g>
     </g>
    </g>
    <g id="ytick_28">
     <g id="line2d_52">
      <g>
       <use xlink:href="#m3c59f5addf" x="831" y="255.470452" style="stroke: #000000; stroke-width: 0.6"/>
      </g>
     </g>
    </g>
    <g id="ytick_29">
     <g id="line2d_53">
      <g>
       <use xlink:href="#m3c59f5addf" x="831" y="230.181344" style="stroke: #000000; stroke-width: 0.6"/>
      </g>
     </g>
    </g>
    <g id="ytick_30">
     <g id="line2d_54">
      <g>
       <use xlink:href="#m3c59f5addf" x="831" y="208.799708" style="stroke: #000000; stroke-width: 0.6"/>
      </g>
     </g>
    </g>
    <g id="ytick_31">
     <g id="line2d_55">
      <g>
       <use xlink:href="#m3c59f5addf" x="831" y="190.278092" style="stroke: #000000; stroke-width: 0.6"/>
      </g>
     </g>
    </g>
    <g id="ytick_32">
     <g id="line2d_56">
      <g>
       <use xlink:href="#m3c59f5addf" x="831" y="173.940868" style="stroke: #000000; stroke-width: 0.6"/>
      </g>
     </g>
    </g>
    <g id="text_25">
     <!-- Mean Relative $H^1$ Error -->
     <g transform="translate(756.489063 510.15)rotate(-90)scale(0.3 -0.3)">
      <use xlink:href="#STIXGeneral-Regular-4d" transform="translate(0 0.684375)"/>
      <use xlink:href="#STIXGeneral-Regular-65" transform="translate(88.899994 0.684375)"/>
      <use xlink:href="#STIXGeneral-Regular-61" transform="translate(133.299988 0.684375)"/>
      <use xlink:href="#STIXGeneral-Regular-6e" transform="translate(177.699982 0.684375)"/>
      <use xlink:href="#STIXGeneral-Regular-20" transform="translate(227.699966 0.684375)"/>
      <use xlink:href="#STIXGeneral-Regular-52" transform="translate(252.699951 0.684375)"/>
      <use xlink:href="#STIXGeneral-Regular-65" transform="translate(319.399948 0.684375)"/>
      <use xlink:href="#STIXGeneral-Regular-6c" transform="translate(363.799942 0.684375)"/>
      <use xlink:href="#STIXGeneral-Regular-61" transform="translate(391.59993 0.684375)"/>
      <use xlink:href="#STIXGeneral-Regular-74" transform="translate(435.999924 0.684375)"/>
      <use xlink:href="#STIXGeneral-Regular-69" transform="translate(463.799911 0.684375)"/>
      <use xlink:href="#STIXGeneral-Regular-76" transform="translate(491.599899 0.684375)"/>
      <use xlink:href="#STIXGeneral-Regular-65" transform="translate(541.599884 0.684375)"/>
      <use xlink:href="#STIXGeneral-Regular-20" transform="translate(585.999878 0.684375)"/>
      <use xlink:href="#DejaVuSans-48" transform="translate(610.999863 0.684375)"/>
      <use xlink:href="#DejaVuSans-31" transform="translate(693.211946 38.965625)scale(0.7)"/>
      <use xlink:href="#STIXGeneral-Regular-20" transform="translate(740.482454 0.684375)"/>
      <use xlink:href="#STIXGeneral-Regular-45" transform="translate(765.482439 0.684375)"/>
      <use xlink:href="#STIXGeneral-Regular-72" transform="translate(826.582429 0.684375)"/>
      <use xlink:href="#STIXGeneral-Regular-72" transform="translate(859.882417 0.684375)"/>
      <use xlink:href="#STIXGeneral-Regular-6f" transform="translate(893.182405 0.684375)"/>
      <use xlink:href="#STIXGeneral-Regular-72" transform="translate(943.18239 0.684375)"/>
     </g>
    </g>
   </g>
   <g id="line2d_57">
    <path d="M 852.136364 155.735036 
L 912.525974 183.473525 
L 972.915584 167.936369 
L 1033.305195 148.959257 
L 1154.084416 119.480445 
L 1274.863636 86.4 
" clip-path="url(#p9ddc67b262)" style="fill: none; stroke: #377eb8; stroke-width: 2.5; stroke-linecap: square"/>
    <g clip-path="url(#p9ddc67b262)">
     <use xlink:href="#m5c5e5f6dcf" x="852.136364" y="155.735036" style="fill: #377eb8; stroke: #377eb8"/>
     <use xlink:href="#m5c5e5f6dcf" x="912.525974" y="183.473525" style="fill: #377eb8; stroke: #377eb8"/>
     <use xlink:href="#m5c5e5f6dcf" x="972.915584" y="167.936369" style="fill: #377eb8; stroke: #377eb8"/>
     <use xlink:href="#m5c5e5f6dcf" x="1033.305195" y="148.959257" style="fill: #377eb8; stroke: #377eb8"/>
     <use xlink:href="#m5c5e5f6dcf" x="1154.084416" y="119.480445" style="fill: #377eb8; stroke: #377eb8"/>
     <use xlink:href="#m5c5e5f6dcf" x="1274.863636" y="86.4" style="fill: #377eb8; stroke: #377eb8"/>
    </g>
   </g>
   <g id="LineCollection_5">
    <path d="M 852.136364 157.396016 
L 852.136364 154.093711 
" clip-path="url(#p9ddc67b262)" style="fill: none; stroke: #377eb8; stroke-width: 1.5"/>
    <path d="M 912.525974 187.495056 
L 912.525974 179.565314 
" clip-path="url(#p9ddc67b262)" style="fill: none; stroke: #377eb8; stroke-width: 1.5"/>
    <path d="M 972.915584 171.321604 
L 972.915584 164.631788 
" clip-path="url(#p9ddc67b262)" style="fill: none; stroke: #377eb8; stroke-width: 1.5"/>
    <path d="M 1033.305195 158.228201 
L 1033.305195 140.271096 
" clip-path="url(#p9ddc67b262)" style="fill: none; stroke: #377eb8; stroke-width: 1.5"/>
    <path d="M 1154.084416 133.618938 
L 1154.084416 106.65073 
" clip-path="url(#p9ddc67b262)" style="fill: none; stroke: #377eb8; stroke-width: 1.5"/>
    <path d="M 1274.863636 93.613923 
L 1274.863636 79.542788 
" clip-path="url(#p9ddc67b262)" style="fill: none; stroke: #377eb8; stroke-width: 1.5"/>
   </g>
   <g id="line2d_58">
    <path d="M 852.136364 214.106613 
L 912.525974 246.691099 
L 972.915584 243.856385 
L 1033.305195 227.586526 
L 1154.084416 214.117277 
L 1274.863636 186.278805 
" clip-path="url(#p9ddc67b262)" style="fill: none; stroke: #ff7f00; stroke-width: 2.5; stroke-linecap: square"/>
    <g clip-path="url(#p9ddc67b262)">
     <use xlink:href="#m64dd97491d" x="852.136364" y="214.106613" style="fill: #ff7f00; stroke: #ff7f00; stroke-linejoin: miter"/>
     <use xlink:href="#m64dd97491d" x="912.525974" y="246.691099" style="fill: #ff7f00; stroke: #ff7f00; stroke-linejoin: miter"/>
     <use xlink:href="#m64dd97491d" x="972.915584" y="243.856385" style="fill: #ff7f00; stroke: #ff7f00; stroke-linejoin: miter"/>
     <use xlink:href="#m64dd97491d" x="1033.305195" y="227.586526" style="fill: #ff7f00; stroke: #ff7f00; stroke-linejoin: miter"/>
     <use xlink:href="#m64dd97491d" x="1154.084416" y="214.117277" style="fill: #ff7f00; stroke: #ff7f00; stroke-linejoin: miter"/>
     <use xlink:href="#m64dd97491d" x="1274.863636" y="186.278805" style="fill: #ff7f00; stroke: #ff7f00; stroke-linejoin: miter"/>
    </g>
   </g>
   <g id="LineCollection_6">
    <path d="M 852.136364 214.668929 
L 852.136364 213.546566 
" clip-path="url(#p9ddc67b262)" style="fill: none; stroke: #ff7f00; stroke-width: 1.5"/>
    <path d="M 912.525974 248.94349 
L 912.525974 244.4747 
" clip-path="url(#p9ddc67b262)" style="fill: none; stroke: #ff7f00; stroke-width: 1.5"/>
    <path d="M 972.915584 246.50633 
L 972.915584 241.256119 
" clip-path="url(#p9ddc67b262)" style="fill: none; stroke: #ff7f00; stroke-width: 1.5"/>
    <path d="M 1033.305195 230.793575 
L 1033.305195 224.451956 
" clip-path="url(#p9ddc67b262)" style="fill: none; stroke: #ff7f00; stroke-width: 1.5"/>
    <path d="M 1154.084416 216.442112 
L 1154.084416 211.830767 
" clip-path="url(#p9ddc67b262)" style="fill: none; stroke: #ff7f00; stroke-width: 1.5"/>
    <path d="M 1274.863636 191.61829 
L 1274.863636 181.137267 
" clip-path="url(#p9ddc67b262)" style="fill: none; stroke: #ff7f00; stroke-width: 1.5"/>
   </g>
   <g id="line2d_59">
    <path d="M 852.136364 275.131341 
L 912.525974 303.591668 
L 972.915584 303.728411 
L 1033.305195 294.517254 
L 1154.084416 281.26452 
L 1274.863636 269.883173 
" clip-path="url(#p9ddc67b262)" style="fill: none; stroke: #4daf4a; stroke-width: 2.5; stroke-linecap: square"/>
    <g clip-path="url(#p9ddc67b262)">
     <use xlink:href="#m6e2416ef18" x="852.136364" y="275.131341" style="fill: #4daf4a; stroke: #4daf4a; stroke-linejoin: miter"/>
     <use xlink:href="#m6e2416ef18" x="912.525974" y="303.591668" style="fill: #4daf4a; stroke: #4daf4a; stroke-linejoin: miter"/>
     <use xlink:href="#m6e2416ef18" x="972.915584" y="303.728411" style="fill: #4daf4a; stroke: #4daf4a; stroke-linejoin: miter"/>
     <use xlink:href="#m6e2416ef18" x="1033.305195" y="294.517254" style="fill: #4daf4a; stroke: #4daf4a; stroke-linejoin: miter"/>
     <use xlink:href="#m6e2416ef18" x="1154.084416" y="281.26452" style="fill: #4daf4a; stroke: #4daf4a; stroke-linejoin: miter"/>
     <use xlink:href="#m6e2416ef18" x="1274.863636" y="269.883173" style="fill: #4daf4a; stroke: #4daf4a; stroke-linejoin: miter"/>
    </g>
   </g>
   <g id="LineCollection_7">
    <path d="M 852.136364 276.564256 
L 852.136364 273.713079 
" clip-path="url(#p9ddc67b262)" style="fill: none; stroke: #4daf4a; stroke-width: 1.5"/>
    <path d="M 912.525974 305.814839 
L 912.525974 301.403568 
" clip-path="url(#p9ddc67b262)" style="fill: none; stroke: #4daf4a; stroke-width: 1.5"/>
    <path d="M 972.915584 305.040008 
L 972.915584 302.429101 
" clip-path="url(#p9ddc67b262)" style="fill: none; stroke: #4daf4a; stroke-width: 1.5"/>
    <path d="M 1033.305195 296.323114 
L 1033.305195 292.734603 
" clip-path="url(#p9ddc67b262)" style="fill: none; stroke: #4daf4a; stroke-width: 1.5"/>
    <path d="M 1154.084416 283.67927 
L 1154.084416 278.891091 
" clip-path="url(#p9ddc67b262)" style="fill: none; stroke: #4daf4a; stroke-width: 1.5"/>
    <path d="M 1274.863636 274.554636 
L 1274.863636 265.363926 
" clip-path="url(#p9ddc67b262)" style="fill: none; stroke: #4daf4a; stroke-width: 1.5"/>
   </g>
   <g id="line2d_60">
    <path d="M 852.136364 325.539013 
L 912.525974 358.816047 
L 972.915584 364.968312 
L 1033.305195 361.772474 
L 1154.084416 352.46375 
L 1274.863636 341.896471 
" clip-path="url(#p9ddc67b262)" style="fill: none; stroke: #f781bf; stroke-width: 2.5; stroke-linecap: square"/>
    <g clip-path="url(#p9ddc67b262)">
     <use xlink:href="#m317e53c7ea" x="852.136364" y="325.539013" style="fill: #f781bf; stroke: #f781bf; stroke-linejoin: miter"/>
     <use xlink:href="#m317e53c7ea" x="912.525974" y="358.816047" style="fill: #f781bf; stroke: #f781bf; stroke-linejoin: miter"/>
     <use xlink:href="#m317e53c7ea" x="972.915584" y="364.968312" style="fill: #f781bf; stroke: #f781bf; stroke-linejoin: miter"/>
     <use xlink:href="#m317e53c7ea" x="1033.305195" y="361.772474" style="fill: #f781bf; stroke: #f781bf; stroke-linejoin: miter"/>
     <use xlink:href="#m317e53c7ea" x="1154.084416" y="352.46375" style="fill: #f781bf; stroke: #f781bf; stroke-linejoin: miter"/>
     <use xlink:href="#m317e53c7ea" x="1274.863636" y="341.896471" style="fill: #f781bf; stroke: #f781bf; stroke-linejoin: miter"/>
    </g>
   </g>
   <g id="LineCollection_8">
    <path d="M 852.136364 326.916191 
L 852.136364 324.175375 
" clip-path="url(#p9ddc67b262)" style="fill: none; stroke: #f781bf; stroke-width: 1.5"/>
    <path d="M 912.525974 360.701918 
L 912.525974 356.955474 
" clip-path="url(#p9ddc67b262)" style="fill: none; stroke: #f781bf; stroke-width: 1.5"/>
    <path d="M 972.915584 366.567646 
L 972.915584 363.38721 
" clip-path="url(#p9ddc67b262)" style="fill: none; stroke: #f781bf; stroke-width: 1.5"/>
    <path d="M 1033.305195 363.111709 
L 1033.305195 360.446045 
" clip-path="url(#p9ddc67b262)" style="fill: none; stroke: #f781bf; stroke-width: 1.5"/>
    <path d="M 1154.084416 354.787913 
L 1154.084416 350.177889 
" clip-path="url(#p9ddc67b262)" style="fill: none; stroke: #f781bf; stroke-width: 1.5"/>
    <path d="M 1274.863636 342.335258 
L 1274.863636 341.459069 
" clip-path="url(#p9ddc67b262)" style="fill: none; stroke: #f781bf; stroke-width: 1.5"/>
   </g>
   <g id="line2d_61">
    <path d="M 852.136364 155.735036 
L 912.525974 183.473525 
L 972.915584 167.936369 
L 1033.305195 148.959257 
L 1154.084416 119.480445 
L 1274.863636 86.4 
" clip-path="url(#p9ddc67b262)" style="fill: none; stroke: #377eb8; stroke-width: 1.5; stroke-linecap: square"/>
   </g>
   <g id="line2d_62">
    <path d="M 852.136364 214.106613 
L 912.525974 246.691099 
L 972.915584 243.856385 
L 1033.305195 227.586526 
L 1154.084416 214.117277 
L 1274.863636 186.278805 
" clip-path="url(#p9ddc67b262)" style="fill: none; stroke: #ff7f00; stroke-width: 1.5; stroke-linecap: square"/>
   </g>
   <g id="line2d_63">
    <path d="M 852.136364 275.131341 
L 912.525974 303.591668 
L 972.915584 303.728411 
L 1033.305195 294.517254 
L 1154.084416 281.26452 
L 1274.863636 269.883173 
" clip-path="url(#p9ddc67b262)" style="fill: none; stroke: #4daf4a; stroke-width: 1.5; stroke-linecap: square"/>
   </g>
   <g id="line2d_64">
    <path d="M 852.136364 325.539013 
L 912.525974 358.816047 
L 972.915584 364.968312 
L 1033.305195 361.772474 
L 1154.084416 352.46375 
L 1274.863636 341.896471 
" clip-path="url(#p9ddc67b262)" style="fill: none; stroke: #f781bf; stroke-width: 1.5; stroke-linecap: square"/>
   </g>
   <g id="patch_9">
    <path d="M 831 640.8 
L 831 86.4 
" style="fill: none; stroke: #000000; stroke-width: 0.8; stroke-linejoin: miter; stroke-linecap: square"/>
   </g>
   <g id="patch_10">
    <path d="M 1296 640.8 
L 1296 86.4 
" style="fill: none; stroke: #000000; stroke-width: 0.8; stroke-linejoin: miter; stroke-linecap: square"/>
   </g>
   <g id="patch_11">
    <path d="M 831 640.8 
L 1296 640.8 
" style="fill: none; stroke: #000000; stroke-width: 0.8; stroke-linejoin: miter; stroke-linecap: square"/>
   </g>
   <g id="patch_12">
    <path d="M 831 86.4 
L 1296 86.4 
" style="fill: none; stroke: #000000; stroke-width: 0.8; stroke-linejoin: miter; stroke-linecap: square"/>
   </g>
   <g id="text_26">
    <!-- Voronoi Microstructure -->
    <g transform="translate(920.608594 79.889063)scale(0.3 -0.3)">
     <defs>
      <path id="STIXGeneral-Regular-56" d="M 4461 4237 
L 4461 4115 
Q 4262 4109 4134 3990 
Q 4006 3872 3872 3533 
L 2451 -70 
L 2355 -70 
L 794 3411 
Q 589 3866 467 3987 
Q 346 4109 102 4115 
L 102 4237 
L 1798 4237 
L 1798 4115 
L 1619 4102 
Q 1331 4083 1331 3904 
Q 1331 3776 1581 3219 
L 2554 1030 
L 3494 3392 
Q 3616 3699 3616 3853 
Q 3616 3898 3606 3933 
Q 3597 3968 3584 3993 
Q 3571 4019 3536 4038 
Q 3501 4058 3481 4067 
Q 3462 4077 3411 4086 
Q 3360 4096 3337 4099 
Q 3315 4102 3248 4108 
Q 3181 4115 3155 4115 
L 3155 4237 
L 4461 4237 
z
" transform="scale(0.015625)"/>
     </defs>
     <use xlink:href="#STIXGeneral-Regular-56"/>
     <use xlink:href="#STIXGeneral-Regular-6f" x="72.199982"/>
     <use xlink:href="#STIXGeneral-Regular-72" x="122.199966"/>
     <use xlink:href="#STIXGeneral-Regular-6f" x="155.499954"/>
     <use xlink:href="#STIXGeneral-Regular-6e" x="205.499939"/>
     <use xlink:href="#STIXGeneral-Regular-6f" x="255.499924"/>
     <use xlink:href="#STIXGeneral-Regular-69" x="305.499908"/>
     <use xlink:href="#STIXGeneral-Regular-20" x="333.299896"/>
     <use xlink:href="#STIXGeneral-Regular-4d" x="358.299881"/>
     <use xlink:href="#STIXGeneral-Regular-69" x="447.199875"/>
     <use xlink:href="#STIXGeneral-Regular-63" x="474.999863"/>
     <use xlink:href="#STIXGeneral-Regular-72" x="519.399857"/>
     <use xlink:href="#STIXGeneral-Regular-6f" x="552.699844"/>
     <use xlink:href="#STIXGeneral-Regular-73" x="602.699829"/>
     <use xlink:href="#STIXGeneral-Regular-74" x="641.599823"/>
     <use xlink:href="#STIXGeneral-Regular-72" x="669.399811"/>
     <use xlink:href="#STIXGeneral-Regular-75" x="702.699799"/>
     <use xlink:href="#STIXGeneral-Regular-63" x="752.699783"/>
     <use xlink:href="#STIXGeneral-Regular-74" x="797.099777"/>
     <use xlink:href="#STIXGeneral-Regular-75" x="824.899765"/>
     <use xlink:href="#STIXGeneral-Regular-72" x="874.89975"/>
     <use xlink:href="#STIXGeneral-Regular-65" x="908.199738"/>
    </g>
   </g>
   <g id="legend_2">
    <g id="patch_13">
     <path d="M 852 625.8 
L 1095.210938 625.8 
Q 1101.210938 625.8 1101.210938 619.8 
L 1101.210938 452.75625 
Q 1101.210938 446.75625 1095.210938 446.75625 
L 852 446.75625 
Q 846 446.75625 846 452.75625 
L 846 619.8 
Q 846 625.8 852 625.8 
z
" style="fill: #ffffff; opacity: 0.8; stroke: #cccccc; stroke-linejoin: miter"/>
    </g>
    <g id="line2d_65">
     <path d="M 858 469.25625 
L 888 469.25625 
L 918 469.25625 
" style="fill: none; stroke: #377eb8; stroke-width: 2.5; stroke-linecap: square"/>
     <g>
      <use xlink:href="#m5c5e5f6dcf" x="888" y="469.25625" style="fill: #377eb8; stroke: #377eb8"/>
     </g>
    </g>
    <g id="text_27">
     <!-- Size = 144 -->
     <g transform="translate(942 479.75625)scale(0.3 -0.3)">
      <use xlink:href="#STIXGeneral-Regular-53"/>
      <use xlink:href="#STIXGeneral-Regular-69" x="55.599991"/>
      <use xlink:href="#STIXGeneral-Regular-7a" x="83.399979"/>
      <use xlink:href="#STIXGeneral-Regular-65" x="127.799973"/>
      <use xlink:href="#STIXGeneral-Regular-20" x="172.199966"/>
      <use xlink:href="#STIXGeneral-Regular-3d" x="197.199951"/>
      <use xlink:href="#STIXGeneral-Regular-20" x="265.699936"/>
      <use xlink:href="#STIXGeneral-Regular-31" x="290.699921"/>
      <use xlink:href="#STIXGeneral-Regular-34" x="340.699905"/>
      <use xlink:href="#STIXGeneral-Regular-34" x="390.69989"/>
     </g>
    </g>
    <g id="line2d_66">
     <path d="M 858 511.767188 
L 888 511.767188 
L 918 511.767188 
" style="fill: none; stroke: #ff7f00; stroke-width: 2.5; stroke-linecap: square"/>
     <g>
      <use xlink:href="#m64dd97491d" x="888" y="511.767188" style="fill: #ff7f00; stroke: #ff7f00; stroke-linejoin: miter"/>
     </g>
    </g>
    <g id="text_28">
     <!-- Size = 288 -->
     <g transform="translate(942 522.267188)scale(0.3 -0.3)">
      <use xlink:href="#STIXGeneral-Regular-53"/>
      <use xlink:href="#STIXGeneral-Regular-69" x="55.599991"/>
      <use xlink:href="#STIXGeneral-Regular-7a" x="83.399979"/>
      <use xlink:href="#STIXGeneral-Regular-65" x="127.799973"/>
      <use xlink:href="#STIXGeneral-Regular-20" x="172.199966"/>
      <use xlink:href="#STIXGeneral-Regular-3d" x="197.199951"/>
      <use xlink:href="#STIXGeneral-Regular-20" x="265.699936"/>
      <use xlink:href="#STIXGeneral-Regular-32" x="290.699921"/>
      <use xlink:href="#STIXGeneral-Regular-38" x="340.699905"/>
      <use xlink:href="#STIXGeneral-Regular-38" x="390.69989"/>
     </g>
    </g>
    <g id="line2d_67">
     <path d="M 858 554.278125 
L 888 554.278125 
L 918 554.278125 
" style="fill: none; stroke: #4daf4a; stroke-width: 2.5; stroke-linecap: square"/>
     <g>
      <use xlink:href="#m6e2416ef18" x="888" y="554.278125" style="fill: #4daf4a; stroke: #4daf4a; stroke-linejoin: miter"/>
     </g>
    </g>
    <g id="text_29">
     <!-- Size = 576 -->
     <g transform="translate(942 564.778125)scale(0.3 -0.3)">
      <use xlink:href="#STIXGeneral-Regular-53"/>
      <use xlink:href="#STIXGeneral-Regular-69" x="55.599991"/>
      <use xlink:href="#STIXGeneral-Regular-7a" x="83.399979"/>
      <use xlink:href="#STIXGeneral-Regular-65" x="127.799973"/>
      <use xlink:href="#STIXGeneral-Regular-20" x="172.199966"/>
      <use xlink:href="#STIXGeneral-Regular-3d" x="197.199951"/>
      <use xlink:href="#STIXGeneral-Regular-20" x="265.699936"/>
      <use xlink:href="#STIXGeneral-Regular-35" x="290.699921"/>
      <use xlink:href="#STIXGeneral-Regular-37" x="340.699905"/>
      <use xlink:href="#STIXGeneral-Regular-36" x="390.69989"/>
     </g>
    </g>
    <g id="line2d_68">
     <path d="M 858 596.789062 
L 888 596.789062 
L 918 596.789062 
" style="fill: none; stroke: #f781bf; stroke-width: 2.5; stroke-linecap: square"/>
     <g>
      <use xlink:href="#m317e53c7ea" x="888" y="596.789062" style="fill: #f781bf; stroke: #f781bf; stroke-linejoin: miter"/>
     </g>
    </g>
    <g id="text_30">
     <!-- Size = 1152 -->
     <g transform="translate(942 607.289062)scale(0.3 -0.3)">
      <use xlink:href="#STIXGeneral-Regular-53"/>
      <use xlink:href="#STIXGeneral-Regular-69" x="55.599991"/>
      <use xlink:href="#STIXGeneral-Regular-7a" x="83.399979"/>
      <use xlink:href="#STIXGeneral-Regular-65" x="127.799973"/>
      <use xlink:href="#STIXGeneral-Regular-20" x="172.199966"/>
      <use xlink:href="#STIXGeneral-Regular-3d" x="197.199951"/>
      <use xlink:href="#STIXGeneral-Regular-20" x="265.699936"/>
      <use xlink:href="#STIXGeneral-Regular-31" x="290.699921"/>
      <use xlink:href="#STIXGeneral-Regular-31" x="340.699905"/>
      <use xlink:href="#STIXGeneral-Regular-35" x="390.69989"/>
      <use xlink:href="#STIXGeneral-Regular-32" x="440.699875"/>
     </g>
    </g>
   </g>
  </g>
 </g>
 <defs>
  <clipPath id="p8e0b530886">
   <rect x="180" y="86.4" width="465" height="554.4"/>
  </clipPath>
  <clipPath id="p9ddc67b262">
   <rect x="831" y="86.4" width="465" height="554.4"/>
  </clipPath>
 </defs>
</svg>
